solid uBraids_SE_Encoder_Spacer
facet normal -0.7071067811865489 -0.7071067811865461 0.0
  outer loop
    vertex -4.213244437154397 -3.6947626601362593 2.000000000000006
    vertex -3.535331853275967 -4.372675244014691 5.639932965095795e-15
    vertex -3.535331853275967 -4.372675244014691 2.000000000000006
  endloop
endfacet
facet normal -0.7071067811865489 -0.7071067811865461 0.0
  outer loop
    vertex -3.535331853275967 -4.372675244014691 5.639932965095795e-15
    vertex -4.213244437154397 -3.6947626601362593 2.000000000000006
    vertex -4.213244437154397 -3.6947626601362593 5.639932965095795e-15
  endloop
endfacet
facet normal -0.5735764363510474 -0.8191520442889909 0.0
  outer loop
    vertex -2.7500000000000018 -4.9225705276747265 2.000000000000006
    vertex -3.535331853275967 -4.372675244014691 5.639932965095795e-15
    vertex -2.7500000000000018 -4.9225705276747265 5.639932965095795e-15
  endloop
endfacet
facet normal -0.5735764363510474 -0.8191520442889909 0.0
  outer loop
    vertex -3.535331853275967 -4.372675244014691 5.639932965095795e-15
    vertex -2.7500000000000018 -4.9225705276747265 2.000000000000006
    vertex -3.535331853275967 -4.372675244014691 2.000000000000006
  endloop
endfacet
facet normal -0.42261826174069894 -0.9063077870366504 0.0
  outer loop
    vertex -1.88111078829118 -5.327740221182809 2.000000000000006
    vertex -2.7500000000000018 -4.9225705276747265 5.639932965095795e-15
    vertex -1.88111078829118 -5.327740221182809 5.639932965095795e-15
  endloop
endfacet
facet normal -0.42261826174069894 -0.9063077870366504 0.0
  outer loop
    vertex -2.7500000000000018 -4.9225705276747265 5.639932965095795e-15
    vertex -1.88111078829118 -5.327740221182809 2.000000000000006
    vertex -2.7500000000000018 -4.9225705276747265 2.000000000000006
  endloop
endfacet
facet normal -0.9063077870366484 0.422618261740703 0.0
  outer loop
    vertex -4.7631397208144035 2.590569193139703 2.000000000000006
    vertex -5.16830941432249 1.7216799814308839 5.639932965095795e-15
    vertex -5.16830941432249 1.7216799814308839 2.000000000000006
  endloop
endfacet
facet normal -0.9063077870366484 0.422618261740703 0.0
  outer loop
    vertex -5.16830941432249 1.7216799814308839 5.639932965095795e-15
    vertex -4.7631397208144035 2.590569193139703 2.000000000000006
    vertex -4.7631397208144035 2.590569193139703 5.639932965095795e-15
  endloop
endfacet
facet normal -0.9659258262890678 0.2588190451025235 0.0
  outer loop
    vertex -5.16830941432249 1.7216799814308839 2.000000000000006
    vertex -5.41644264156714 0.7956341703078246 5.639932965095795e-15
    vertex -5.41644264156714 0.7956341703078246 2.000000000000006
  endloop
endfacet
facet normal -0.9659258262890678 0.2588190451025235 0.0
  outer loop
    vertex -5.41644264156714 0.7956341703078246 5.639932965095795e-15
    vertex -5.16830941432249 1.7216799814308839 2.000000000000006
    vertex -5.16830941432249 1.7216799814308839 5.639932965095795e-15
  endloop
endfacet
facet normal -0.9961946980917453 0.08715574274766222 0.0
  outer loop
    vertex -5.41644264156714 0.7956341703078246 2.000000000000006
    vertex -5.5 -0.15943080686029173 5.639932965095795e-15
    vertex -5.5 -0.15943080686029173 2.000000000000006
  endloop
endfacet
facet normal -0.9961946980917453 0.08715574274766222 0.0
  outer loop
    vertex -5.5 -0.15943080686029173 5.639932965095795e-15
    vertex -5.41644264156714 0.7956341703078246 2.000000000000006
    vertex -5.41644264156714 0.7956341703078246 5.639932965095795e-15
  endloop
endfacet
facet normal -0.996194698091746 -0.08715574274765353 0.0
  outer loop
    vertex -5.5 -0.15943080686029173 2.000000000000006
    vertex -5.416442641567149 -1.1144957840284073 5.639932965095795e-15
    vertex -5.416442641567149 -1.1144957840284073 2.000000000000006
  endloop
endfacet
facet normal -0.996194698091746 -0.08715574274765353 0.0
  outer loop
    vertex -5.416442641567149 -1.1144957840284073 5.639932965095795e-15
    vertex -5.5 -0.15943080686029173 2.000000000000006
    vertex -5.5 -0.15943080686029173 5.639932965095795e-15
  endloop
endfacet
facet normal -0.9659258262890692 -0.25881904510251746 0.0
  outer loop
    vertex -5.416442641567149 -1.1144957840284073 2.000000000000006
    vertex -5.168309414322504 -2.0405415951514683 5.639932965095795e-15
    vertex -5.168309414322504 -2.0405415951514683 2.000000000000006
  endloop
endfacet
facet normal -0.9659258262890692 -0.25881904510251746 0.0
  outer loop
    vertex -5.168309414322504 -2.0405415951514683 5.639932965095795e-15
    vertex -5.416442641567149 -1.1144957840284073 2.000000000000006
    vertex -5.416442641567149 -1.1144957840284073 5.639932965095795e-15
  endloop
endfacet
facet normal -0.906307787036652 -0.422618261740695 0.0
  outer loop
    vertex -5.168309414322504 -2.0405415951514683 2.000000000000006
    vertex -4.763139720814426 -2.909430806860291 5.639932965095795e-15
    vertex -4.763139720814426 -2.909430806860291 2.000000000000006
  endloop
endfacet
facet normal -0.906307787036652 -0.422618261740695 0.0
  outer loop
    vertex -4.763139720814426 -2.909430806860291 5.639932965095795e-15
    vertex -5.168309414322504 -2.0405415951514683 2.000000000000006
    vertex -5.168309414322504 -2.0405415951514683 5.639932965095795e-15
  endloop
endfacet
facet normal -0.7071067811865449 0.7071067811865501 -0.0
  outer loop
    vertex -4.213244437154368 3.3759010464156667 2.000000000000006
    vertex -3.5353318532759537 4.053813630294076 5.639932965095795e-15
    vertex -4.213244437154368 3.3759010464156667 5.639932965095795e-15
  endloop
endfacet
facet normal -0.7071067811865449 0.7071067811865501 -0.0
  outer loop
    vertex -3.5353318532759537 4.053813630294076 5.639932965095795e-15
    vertex -4.213244437154368 3.3759010464156667 2.000000000000006
    vertex -3.5353318532759537 4.053813630294076 2.000000000000006
  endloop
endfacet
facet normal -0.2588190451025215 -0.9659258262890682 0.0
  outer loop
    vertex -0.9550649771681184 -5.575873448427458 2.000000000000006
    vertex -1.88111078829118 -5.327740221182809 5.639932965095795e-15
    vertex -0.9550649771681184 -5.575873448427458 5.639932965095795e-15
  endloop
endfacet
facet normal -0.2588190451025215 -0.9659258262890682 0.0
  outer loop
    vertex -1.88111078829118 -5.327740221182809 5.639932965095795e-15
    vertex -0.9550649771681184 -5.575873448427458 2.000000000000006
    vertex -1.88111078829118 -5.327740221182809 2.000000000000006
  endloop
endfacet
facet normal 0.5735764363510455 -0.8191520442889922 0.0
  outer loop
    vertex 3.5353318532759657 -4.372675244014694 2.000000000000006
    vertex 2.7499999999999987 -4.9225705276747265 5.639932965095795e-15
    vertex 3.5353318532759657 -4.372675244014694 5.639932965095795e-15
  endloop
endfacet
facet normal 0.5735764363510455 -0.8191520442889922 0.0
  outer loop
    vertex 2.7499999999999987 -4.9225705276747265 5.639932965095795e-15
    vertex 3.5353318532759657 -4.372675244014694 2.000000000000006
    vertex 2.7499999999999987 -4.9225705276747265 2.000000000000006
  endloop
endfacet
facet normal -0.08715574274765851 -0.9961946980917455 0.0
  outer loop
    vertex -1.4099832412739487e-15 -5.659430806860314 2.000000000000006
    vertex -0.9550649771681184 -5.575873448427458 5.639932965095795e-15
    vertex -1.4099832412739487e-15 -5.659430806860314 5.639932965095795e-15
  endloop
endfacet
facet normal -0.08715574274765851 -0.9961946980917455 0.0
  outer loop
    vertex -0.9550649771681184 -5.575873448427458 5.639932965095795e-15
    vertex -1.4099832412739487e-15 -5.659430806860314 2.000000000000006
    vertex -0.9550649771681184 -5.575873448427458 2.000000000000006
  endloop
endfacet
facet normal 0.08715574274765853 -0.9961946980917455 0.0
  outer loop
    vertex 0.9550649771681152 -5.575873448427458 2.000000000000006
    vertex -1.4099832412739487e-15 -5.659430806860314 5.639932965095795e-15
    vertex 0.9550649771681152 -5.575873448427458 5.639932965095795e-15
  endloop
endfacet
facet normal 0.08715574274765853 -0.9961946980917455 0.0
  outer loop
    vertex -1.4099832412739487e-15 -5.659430806860314 5.639932965095795e-15
    vertex 0.9550649771681152 -5.575873448427458 2.000000000000006
    vertex -1.4099832412739487e-15 -5.659430806860314 2.000000000000006
  endloop
endfacet
facet normal -0.8191520442889874 -0.5735764363510526 -9.17797089080129e-17
  outer loop
    vertex 3.2908965343808476 1.7405691931397183 2.000000000000006
    vertex 2.9109688838520937 2.2831621099485644 8.459899447643692e-15
    vertex 3.290896534380858 1.7405691931397027 8.459899447643692e-15
  endloop
endfacet
facet normal -0.8191520442889874 -0.5735764363510526 -9.17797089080129e-17
  outer loop
    vertex 2.9109688838520937 2.2831621099485644 8.459899447643692e-15
    vertex 3.2908965343808476 1.7405691931397183 2.000000000000006
    vertex 2.910968883852093 2.283162109948563 2.000000000000006
  endloop
endfacet
facet normal -0.9063077870366475 -0.42261826174070466 -9.146732452658928e-16
  outer loop
    vertex 3.2908965343808476 1.7405691931397183 2.000000000000006
    vertex 3.5708319589864455 1.1402457377772452 8.459899447643692e-15
    vertex 3.570831958986444 1.1402457377772452 2.000000000000006
  endloop
endfacet
facet normal -0.9063077870366475 -0.42261826174070466 -9.146732452658928e-16
  outer loop
    vertex 3.5708319589864455 1.1402457377772452 8.459899447643692e-15
    vertex 3.2908965343808476 1.7405691931397183 2.000000000000006
    vertex 3.290896534380858 1.7405691931397027 8.459899447643692e-15
  endloop
endfacet
facet normal -0.9659258262890668 -0.25881904510252635 -6.8409515781597705e-16
  outer loop
    vertex 3.570831958986444 1.1402457377772452 2.000000000000006
    vertex 3.742269461446388 0.5004322682740404 8.459899447643692e-15
    vertex 3.7422694614463867 0.5004322682740404 2.000000000000006
  endloop
endfacet
facet normal -0.9659258262890668 -0.25881904510252635 -6.8409515781597705e-16
  outer loop
    vertex 3.742269461446388 0.5004322682740404 8.459899447643692e-15
    vertex 3.570831958986444 1.1402457377772452 2.000000000000006
    vertex 3.5708319589864455 1.1402457377772452 8.459899447643692e-15
  endloop
endfacet
facet normal -0.9961946980917451 -0.08715574274766322 -6.946455445753584e-16
  outer loop
    vertex 3.7999999999999994 -0.1594308068602942 2.000000000000006
    vertex 3.742269461446388 0.5004322682740404 8.459899447643692e-15
    vertex 3.8000000000000007 -0.15943080686029454 8.459899447643692e-15
  endloop
endfacet
facet normal -0.9961946980917451 -0.08715574274766322 -6.946455445753584e-16
  outer loop
    vertex 3.742269461446388 0.5004322682740404 8.459899447643692e-15
    vertex 3.7999999999999994 -0.1594308068602942 2.000000000000006
    vertex 3.7422694614463867 0.5004322682740404 2.000000000000006
  endloop
endfacet
facet normal -0.996194698091746 0.08715574274765304 -5.544055494452241e-16
  outer loop
    vertex 3.742269461446394 -0.8192938819946297 2.000000000000006
    vertex 3.8000000000000007 -0.15943080686029454 8.459899447643692e-15
    vertex 3.7422694614463943 -0.8192938819946306 8.459899447643692e-15
  endloop
endfacet
facet normal -0.996194698091746 0.08715574274765304 -5.544055494452241e-16
  outer loop
    vertex 3.8000000000000007 -0.15943080686029454 8.459899447643692e-15
    vertex 3.742269461446394 -0.8192938819946297 2.000000000000006
    vertex 3.7999999999999994 -0.1594308068602942 2.000000000000006
  endloop
endfacet
facet normal -0.9659258262890696 0.2588190451025157 -4.1898947190572034e-16
  outer loop
    vertex 3.5708319589864583 -1.4591073514978368 2.000000000000006
    vertex 3.7422694614463943 -0.8192938819946306 8.459899447643692e-15
    vertex 3.570831958986459 -1.459107351497837 8.459899447643692e-15
  endloop
endfacet
facet normal -0.9659258262890696 0.2588190451025157 -4.1898947190572034e-16
  outer loop
    vertex 3.7422694614463943 -0.8192938819946306 8.459899447643692e-15
    vertex 3.5708319589864583 -1.4591073514978368 2.000000000000006
    vertex 3.742269461446394 -0.8192938819946297 2.000000000000006
  endloop
endfacet
facet normal -0.9063077870366522 0.4226182617406949 -2.693424174290289e-16
  outer loop
    vertex 3.290896534380877 -2.0594308068602967 2.000000000000006
    vertex 3.570831958986459 -1.459107351497837 8.459899447643692e-15
    vertex 3.290896534380877 -2.0594308068602976 8.459899447643692e-15
  endloop
endfacet
facet normal -0.9063077870366522 0.4226182617406949 -2.693424174290289e-16
  outer loop
    vertex 3.570831958986459 -1.459107351497837 8.459899447643692e-15
    vertex 3.290896534380877 -2.0594308068602967 2.000000000000006
    vertex 3.5708319589864583 -1.4591073514978368 2.000000000000006
  endloop
endfacet
facet normal -0.8191520442889944 0.5735764363510425 -3.223776228164929e-16
  outer loop
    vertex 2.910968883852129 -2.6020237236691477 2.000000000000006
    vertex 3.290896534380877 -2.0594308068602976 8.459899447643692e-15
    vertex 2.910968883852129 -2.6020237236691486 8.459899447643692e-15
  endloop
endfacet
facet normal -0.8191520442889944 0.5735764363510425 -3.223776228164929e-16
  outer loop
    vertex 3.290896534380877 -2.0594308068602976 8.459899447643692e-15
    vertex 2.910968883852129 -2.6020237236691477 2.000000000000006
    vertex 3.290896534380877 -2.0594308068602967 2.000000000000006
  endloop
endfacet
facet normal -0.7071067811865513 0.7071067811865438 -5.688012589067807e-16
  outer loop
    vertex 2.4425929168088643 -3.070399690712417 2.000000000000006
    vertex 2.910968883852129 -2.6020237236691486 8.459899447643692e-15
    vertex 2.4425929168088643 -3.0703996907124185 8.459899447643692e-15
  endloop
endfacet
facet normal -0.7071067811865513 0.7071067811865438 -5.688012589067807e-16
  outer loop
    vertex 2.910968883852129 -2.6020237236691486 8.459899447643692e-15
    vertex 2.4425929168088643 -3.070399690712417 2.000000000000006
    vertex 2.910968883852129 -2.6020237236691477 2.000000000000006
  endloop
endfacet
facet normal -0.5735764363510499 0.8191520442889891 -4.44062324880607e-16
  outer loop
    vertex 1.9000000000000166 -3.4503273412411706 2.000000000000006
    vertex 2.4425929168088643 -3.0703996907124185 8.459899447643692e-15
    vertex 1.9000000000000163 -3.4503273412411715 8.459899447643692e-15
  endloop
endfacet
facet normal -0.5735764363510499 0.8191520442889891 -4.44062324880607e-16
  outer loop
    vertex 2.4425929168088643 -3.0703996907124185 8.459899447643692e-15
    vertex 1.9000000000000166 -3.4503273412411706 2.000000000000006
    vertex 2.4425929168088643 -3.070399690712417 2.000000000000006
  endloop
endfacet
facet normal -0.42261826174070355 0.9063077870366482 -4.200330126425378e-16
  outer loop
    vertex 1.299676544637559 -3.7302627658467578 2.000000000000006
    vertex 1.9000000000000163 -3.4503273412411715 8.459899447643692e-15
    vertex 1.2996765446375589 -3.730262765846759 8.459899447643692e-15
  endloop
endfacet
facet normal -0.42261826174070355 0.9063077870366482 -4.200330126425378e-16
  outer loop
    vertex 1.9000000000000163 -3.4503273412411715 8.459899447643692e-15
    vertex 1.299676544637559 -3.7302627658467578 2.000000000000006
    vertex 1.9000000000000166 -3.4503273412411706 2.000000000000006
  endloop
endfacet
facet normal -3.377316409775731e-32 6.047221949936255e-33 1.0
  outer loop
    vertex -5.416442641567149 -1.1144957840284073 2.000000000000006
    vertex -5.41644264156714 0.7956341703078246 2.000000000000006
    vertex -5.5 -0.15943080686029173 2.000000000000006
  endloop
endfacet
facet normal -3.377316409775731e-32 6.047221949936255e-33 1.0
  outer loop
    vertex -5.41644264156714 0.7956341703078246 2.000000000000006
    vertex -5.416442641567149 -1.1144957840284073 2.000000000000006
    vertex -5.168309414322504 -2.0405415951514683 2.000000000000006
  endloop
endfacet
facet normal -3.377316409775731e-32 6.047221949936255e-33 1.0
  outer loop
    vertex -5.41644264156714 0.7956341703078246 2.000000000000006
    vertex -5.168309414322504 -2.0405415951514683 2.000000000000006
    vertex -5.16830941432249 1.7216799814308839 2.000000000000006
  endloop
endfacet
facet normal -3.377316409775731e-32 6.047221949936255e-33 1.0
  outer loop
    vertex -5.16830941432249 1.7216799814308839 2.000000000000006
    vertex -5.168309414322504 -2.0405415951514683 2.000000000000006
    vertex -4.763139720814426 -2.909430806860291 2.000000000000006
  endloop
endfacet
facet normal -3.377316409775731e-32 6.047221949936255e-33 1.0
  outer loop
    vertex -5.16830941432249 1.7216799814308839 2.000000000000006
    vertex -4.763139720814426 -2.909430806860291 2.000000000000006
    vertex -4.7631397208144035 2.590569193139703 2.000000000000006
  endloop
endfacet
facet normal -3.377316409775731e-32 6.047221949936255e-33 1.0
  outer loop
    vertex -4.7631397208144035 2.590569193139703 2.000000000000006
    vertex -4.763139720814426 -2.909430806860291 2.000000000000006
    vertex -4.213244437154397 -3.6947626601362593 2.000000000000006
  endloop
endfacet
facet normal -3.377316409775731e-32 6.047221949936255e-33 1.0
  outer loop
    vertex -4.7631397208144035 2.590569193139703 2.000000000000006
    vertex -4.213244437154397 -3.6947626601362593 2.000000000000006
    vertex -4.213244437154368 3.3759010464156667 2.000000000000006
  endloop
endfacet
facet normal -3.377316409775731e-32 6.047221949936255e-33 1.0
  outer loop
    vertex -4.213244437154368 3.3759010464156667 2.000000000000006
    vertex -4.213244437154397 -3.6947626601362593 2.000000000000006
    vertex -3.535331853275967 -4.372675244014691 2.000000000000006
  endloop
endfacet
facet normal -3.377316409775731e-32 6.047221949936255e-33 1.0
  outer loop
    vertex -4.213244437154368 3.3759010464156667 2.000000000000006
    vertex -3.535331853275967 -4.372675244014691 2.000000000000006
    vertex -3.7999999999999994 -0.15943080686034072 2.000000000000006
  endloop
endfacet
facet normal -3.377316409775731e-32 6.047221949936255e-33 1.0
  outer loop
    vertex -3.7999999999999994 -0.15943080686034072 2.000000000000006
    vertex -3.535331853275967 -4.372675244014691 2.000000000000006
    vertex -3.742269461446386 -0.8192938819946743 2.000000000000006
  endloop
endfacet
facet normal -3.377316409775731e-32 6.047221949936255e-33 1.0
  outer loop
    vertex -3.742269461446386 -0.8192938819946743 2.000000000000006
    vertex -3.535331853275967 -4.372675244014691 2.000000000000006
    vertex -3.570831958986443 -1.4591073514978785 2.000000000000006
  endloop
endfacet
facet normal -3.377316409775731e-32 6.047221949936255e-33 1.0
  outer loop
    vertex -3.570831958986443 -1.4591073514978785 2.000000000000006
    vertex -3.535331853275967 -4.372675244014691 2.000000000000006
    vertex -3.2908965343808543 -2.059430806860335 2.000000000000006
  endloop
endfacet
facet normal -3.377316409775731e-32 6.047221949936255e-33 1.0
  outer loop
    vertex -3.2908965343808543 -2.059430806860335 2.000000000000006
    vertex -3.535331853275967 -4.372675244014691 2.000000000000006
    vertex -2.7500000000000018 -4.9225705276747265 2.000000000000006
  endloop
endfacet
facet normal -3.377316409775731e-32 6.047221949936255e-33 1.0
  outer loop
    vertex -3.2908965343808543 -2.059430806860335 2.000000000000006
    vertex -2.7500000000000018 -4.9225705276747265 2.000000000000006
    vertex -2.9109688838521004 -2.602023723669181 2.000000000000006
  endloop
endfacet
facet normal -3.377316409775731e-32 6.047221949936255e-33 1.0
  outer loop
    vertex -2.9109688838521004 -2.602023723669181 2.000000000000006
    vertex -2.7500000000000018 -4.9225705276747265 2.000000000000006
    vertex -2.4425929168088314 -3.0703996907124442 2.000000000000006
  endloop
endfacet
facet normal -3.377316409775731e-32 6.047221949936255e-33 1.0
  outer loop
    vertex -2.4425929168088314 -3.0703996907124442 2.000000000000006
    vertex -2.7500000000000018 -4.9225705276747265 2.000000000000006
    vertex -1.88111078829118 -5.327740221182809 2.000000000000006
  endloop
endfacet
facet normal -3.377316409775731e-32 6.047221949936255e-33 1.0
  outer loop
    vertex -2.4425929168088314 -3.0703996907124442 2.000000000000006
    vertex -1.88111078829118 -5.327740221182809 2.000000000000006
    vertex -1.899999999999981 -3.450327341241191 2.000000000000006
  endloop
endfacet
facet normal -3.377316409775731e-32 6.047221949936255e-33 1.0
  outer loop
    vertex -1.899999999999981 -3.450327341241191 2.000000000000006
    vertex -1.88111078829118 -5.327740221182809 2.000000000000006
    vertex -1.2996765446375211 -3.7302627658467724 2.000000000000006
  endloop
endfacet
facet normal -3.377316409775731e-32 6.047221949936255e-33 1.0
  outer loop
    vertex -1.2996765446375211 -3.7302627658467724 2.000000000000006
    vertex -1.88111078829118 -5.327740221182809 2.000000000000006
    vertex -0.9550649771681184 -5.575873448427458 2.000000000000006
  endloop
endfacet
facet normal -3.377316409775731e-32 6.047221949936255e-33 1.0
  outer loop
    vertex -1.2996765446375211 -3.7302627658467724 2.000000000000006
    vertex -0.9550649771681184 -5.575873448427458 2.000000000000006
    vertex -0.6598630751343145 -3.9017002683067075 2.000000000000006
  endloop
endfacet
facet normal -3.377316409775731e-32 6.047221949936255e-33 1.0
  outer loop
    vertex -0.6598630751343145 -3.9017002683067075 2.000000000000006
    vertex -0.9550649771681184 -5.575873448427458 2.000000000000006
    vertex -1.4099832412739487e-15 -5.659430806860314 2.000000000000006
  endloop
endfacet
facet normal -3.377316409775731e-32 6.047221949936255e-33 1.0
  outer loop
    vertex -0.6598630751343145 -3.9017002683067075 2.000000000000006
    vertex -1.4099832412739487e-15 -5.659430806860314 2.000000000000006
    vertex 2.009226118815377e-14 -3.9594308068603135 2.000000000000006
  endloop
endfacet
facet normal -3.377316409775731e-32 6.047221949936255e-33 1.0
  outer loop
    vertex 2.009226118815377e-14 -3.9594308068603135 2.000000000000006
    vertex -1.4099832412739487e-15 -5.659430806860314 2.000000000000006
    vertex 0.9550649771681152 -5.575873448427458 2.000000000000006
  endloop
endfacet
facet normal -3.377316409775731e-32 6.047221949936255e-33 1.0
  outer loop
    vertex 2.009226118815377e-14 -3.9594308068603135 2.000000000000006
    vertex 0.9550649771681152 -5.575873448427458 2.000000000000006
    vertex 0.659863075134354 -3.9017002683067004 2.000000000000006
  endloop
endfacet
facet normal -3.377316409775731e-32 6.047221949936255e-33 1.0
  outer loop
    vertex 0.659863075134354 -3.9017002683067004 2.000000000000006
    vertex 0.9550649771681152 -5.575873448427458 2.000000000000006
    vertex 1.299676544637559 -3.7302627658467578 2.000000000000006
  endloop
endfacet
facet normal -3.377316409775731e-32 6.047221949936255e-33 1.0
  outer loop
    vertex 1.299676544637559 -3.7302627658467578 2.000000000000006
    vertex 0.9550649771681152 -5.575873448427458 2.000000000000006
    vertex 1.8811107882911764 -5.32774022118281 2.000000000000006
  endloop
endfacet
facet normal -3.377316409775731e-32 6.047221949936255e-33 1.0
  outer loop
    vertex 1.299676544637559 -3.7302627658467578 2.000000000000006
    vertex 1.8811107882911764 -5.32774022118281 2.000000000000006
    vertex 1.9000000000000166 -3.4503273412411706 2.000000000000006
  endloop
endfacet
facet normal -3.377316409775731e-32 6.047221949936255e-33 1.0
  outer loop
    vertex 1.9000000000000166 -3.4503273412411706 2.000000000000006
    vertex 1.8811107882911764 -5.32774022118281 2.000000000000006
    vertex 2.7499999999999987 -4.9225705276747265 2.000000000000006
  endloop
endfacet
facet normal -3.377316409775731e-32 6.047221949936255e-33 1.0
  outer loop
    vertex 1.9000000000000166 -3.4503273412411706 2.000000000000006
    vertex 2.7499999999999987 -4.9225705276747265 2.000000000000006
    vertex 2.4425929168088643 -3.070399690712417 2.000000000000006
  endloop
endfacet
facet normal -3.377316409775731e-32 6.047221949936255e-33 1.0
  outer loop
    vertex 2.4425929168088643 -3.070399690712417 2.000000000000006
    vertex 2.7499999999999987 -4.9225705276747265 2.000000000000006
    vertex 2.910968883852129 -2.6020237236691477 2.000000000000006
  endloop
endfacet
facet normal -3.377316409775731e-32 6.047221949936255e-33 1.0
  outer loop
    vertex 2.910968883852129 -2.6020237236691477 2.000000000000006
    vertex 2.7499999999999987 -4.9225705276747265 2.000000000000006
    vertex 3.5353318532759657 -4.372675244014694 2.000000000000006
  endloop
endfacet
facet normal -3.377316409775731e-32 6.047221949936255e-33 1.0
  outer loop
    vertex 2.910968883852129 -2.6020237236691477 2.000000000000006
    vertex 3.5353318532759657 -4.372675244014694 2.000000000000006
    vertex 3.290896534380877 -2.0594308068602967 2.000000000000006
  endloop
endfacet
facet normal -3.377316409775731e-32 6.047221949936255e-33 1.0
  outer loop
    vertex 3.290896534380877 -2.0594308068602967 2.000000000000006
    vertex 3.5353318532759657 -4.372675244014694 2.000000000000006
    vertex 3.5708319589864583 -1.4591073514978368 2.000000000000006
  endloop
endfacet
facet normal -3.377316409775731e-32 6.047221949936255e-33 1.0
  outer loop
    vertex 3.5708319589864583 -1.4591073514978368 2.000000000000006
    vertex 3.5353318532759657 -4.372675244014694 2.000000000000006
    vertex 4.213244437154378 -3.6947626601362806 2.000000000000006
  endloop
endfacet
facet normal -3.377316409775731e-32 6.047221949936255e-33 1.0
  outer loop
    vertex 3.5708319589864583 -1.4591073514978368 2.000000000000006
    vertex 4.213244437154378 -3.6947626601362806 2.000000000000006
    vertex 3.742269461446394 -0.8192938819946297 2.000000000000006
  endloop
endfacet
facet normal -3.377316409775731e-32 6.047221949936255e-33 1.0
  outer loop
    vertex 3.742269461446394 -0.8192938819946297 2.000000000000006
    vertex 4.213244437154378 -3.6947626601362806 2.000000000000006
    vertex 3.7999999999999994 -0.1594308068602942 2.000000000000006
  endloop
endfacet
facet normal -3.377316409775731e-32 6.047221949936255e-33 1.0
  outer loop
    vertex -3.7999999999999994 -0.15943080686034072 2.000000000000006
    vertex -3.5353318532759537 4.053813630294076 2.000000000000006
    vertex -4.213244437154368 3.3759010464156667 2.000000000000006
  endloop
endfacet
facet normal -3.377316409775731e-32 6.047221949936255e-33 1.0
  outer loop
    vertex -3.5353318532759537 4.053813630294076 2.000000000000006
    vertex -3.7999999999999994 -0.15943080686034072 2.000000000000006
    vertex -3.742269461446395 0.5004322682739946 2.000000000000006
  endloop
endfacet
facet normal -3.377316409775731e-32 6.047221949936255e-33 1.0
  outer loop
    vertex -3.5353318532759537 4.053813630294076 2.000000000000006
    vertex -3.742269461446395 0.5004322682739946 2.000000000000006
    vertex -3.570831958986461 1.140245737777202 2.000000000000006
  endloop
endfacet
facet normal -3.377316409775731e-32 6.047221949936255e-33 1.0
  outer loop
    vertex -3.5353318532759537 4.053813630294076 2.000000000000006
    vertex -3.570831958986461 1.140245737777202 2.000000000000006
    vertex -3.290896534380881 1.740569193139662 2.000000000000006
  endloop
endfacet
facet normal -3.377316409775731e-32 6.047221949936255e-33 1.0
  outer loop
    vertex -3.5353318532759537 4.053813630294076 2.000000000000006
    vertex -3.290896534380881 1.740569193139662 2.000000000000006
    vertex -2.7499999999999867 4.603708913954107 2.000000000000006
  endloop
endfacet
facet normal -3.377316409775731e-32 6.047221949936255e-33 1.0
  outer loop
    vertex -2.7499999999999867 4.603708913954107 2.000000000000006
    vertex -3.290896534380881 1.740569193139662 2.000000000000006
    vertex -2.910968883852134 2.2831621099485138 2.000000000000006
  endloop
endfacet
facet normal -3.377316409775731e-32 6.047221949936255e-33 1.0
  outer loop
    vertex -2.7499999999999867 4.603708913954107 2.000000000000006
    vertex -2.910968883852134 2.2831621099485138 2.000000000000006
    vertex -2.4425929168088714 2.7515380769917837 2.000000000000006
  endloop
endfacet
facet normal -3.377316409775731e-32 6.047221949936255e-33 1.0
  outer loop
    vertex -2.7499999999999867 4.603708913954107 2.000000000000006
    vertex -2.4425929168088714 2.7515380769917837 2.000000000000006
    vertex -1.8811107882911644 5.008878607462187 2.000000000000006
  endloop
endfacet
facet normal -3.377316409775731e-32 6.047221949936255e-33 1.0
  outer loop
    vertex -1.8811107882911644 5.008878607462187 2.000000000000006
    vertex -2.4425929168088714 2.7515380769917837 2.000000000000006
    vertex -1.9000000000000257 3.131465727520538 2.000000000000006
  endloop
endfacet
facet normal -3.377316409775731e-32 6.047221949936255e-33 1.0
  outer loop
    vertex -1.8811107882911644 5.008878607462187 2.000000000000006
    vertex -1.9000000000000257 3.131465727520538 2.000000000000006
    vertex -1.2996765446375698 3.411401152126127 2.000000000000006
  endloop
endfacet
facet normal -3.377316409775731e-32 6.047221949936255e-33 1.0
  outer loop
    vertex -1.8811107882911644 5.008878607462187 2.000000000000006
    vertex -1.2996765446375698 3.411401152126127 2.000000000000006
    vertex -0.9550649771681033 5.257011834706834 2.000000000000006
  endloop
endfacet
facet normal -3.377316409775731e-32 6.047221949936255e-33 1.0
  outer loop
    vertex -0.9550649771681033 5.257011834706834 2.000000000000006
    vertex -1.2996765446375698 3.411401152126127 2.000000000000006
    vertex -0.659863075134366 3.5828386545860718 2.000000000000006
  endloop
endfacet
facet normal -3.377316409775731e-32 6.047221949936255e-33 1.0
  outer loop
    vertex -0.9550649771681033 5.257011834706834 2.000000000000006
    vertex -0.659863075134366 3.5828386545860718 2.000000000000006
    vertex 1.2337353361147052e-14 5.340569193139687 2.000000000000006
  endloop
endfacet
facet normal -3.377316409775731e-32 6.047221949936255e-33 1.0
  outer loop
    vertex 1.2337353361147052e-14 5.340569193139687 2.000000000000006
    vertex -0.659863075134366 3.5828386545860718 2.000000000000006
    vertex -3.242961454930082e-14 3.6405691931396857 2.000000000000006
  endloop
endfacet
facet normal -3.377316409775731e-32 6.047221949936255e-33 1.0
  outer loop
    vertex 1.2337353361147052e-14 5.340569193139687 2.000000000000006
    vertex -3.242961454930082e-14 3.6405691931396857 2.000000000000006
    vertex 0.6598630751343028 3.5828386545860824 2.000000000000006
  endloop
endfacet
facet normal -3.377316409775731e-32 6.047221949936255e-33 1.0
  outer loop
    vertex 1.2337353361147052e-14 5.340569193139687 2.000000000000006
    vertex 0.6598630751343028 3.5828386545860824 2.000000000000006
    vertex 0.9550649771681301 5.257011834706828 2.000000000000006
  endloop
endfacet
facet normal -3.377316409775731e-32 6.047221949936255e-33 1.0
  outer loop
    vertex 0.9550649771681301 5.257011834706828 2.000000000000006
    vertex 0.6598630751343028 3.5828386545860824 2.000000000000006
    vertex 1.2996765446375096 3.411401152126149 2.000000000000006
  endloop
endfacet
facet normal -3.377316409775731e-32 6.047221949936255e-33 1.0
  outer loop
    vertex 0.9550649771681301 5.257011834706828 2.000000000000006
    vertex 1.2996765446375096 3.411401152126149 2.000000000000006
    vertex 1.8811107882911902 5.008878607462179 2.000000000000006
  endloop
endfacet
facet normal -3.377316409775731e-32 6.047221949936255e-33 1.0
  outer loop
    vertex 1.8811107882911902 5.008878607462179 2.000000000000006
    vertex 1.2996765446375096 3.411401152126149 2.000000000000006
    vertex 1.8999999999999697 3.1314657275205704 2.000000000000006
  endloop
endfacet
facet normal -3.377316409775731e-32 6.047221949936255e-33 1.0
  outer loop
    vertex 1.8811107882911902 5.008878607462179 2.000000000000006
    vertex 1.8999999999999697 3.1314657275205704 2.000000000000006
    vertex 2.7500000000000098 4.603708913954093 2.000000000000006
  endloop
endfacet
facet normal -3.377316409775731e-32 6.047221949936255e-33 1.0
  outer loop
    vertex 2.7500000000000098 4.603708913954093 2.000000000000006
    vertex 1.8999999999999697 3.1314657275205704 2.000000000000006
    vertex 2.442592916808822 2.751538076991825 2.000000000000006
  endloop
endfacet
facet normal -3.377316409775731e-32 6.047221949936255e-33 1.0
  outer loop
    vertex 2.7500000000000098 4.603708913954093 2.000000000000006
    vertex 2.442592916808822 2.751538076991825 2.000000000000006
    vertex 2.910968883852093 2.283162109948563 2.000000000000006
  endloop
endfacet
facet normal -3.377316409775731e-32 6.047221949936255e-33 1.0
  outer loop
    vertex 2.7500000000000098 4.603708913954093 2.000000000000006
    vertex 2.910968883852093 2.283162109948563 2.000000000000006
    vertex 3.535331853275974 4.0538136302940595 2.000000000000006
  endloop
endfacet
facet normal -3.377316409775731e-32 6.047221949936255e-33 1.0
  outer loop
    vertex 3.535331853275974 4.0538136302940595 2.000000000000006
    vertex 2.910968883852093 2.283162109948563 2.000000000000006
    vertex 3.2908965343808476 1.7405691931397183 2.000000000000006
  endloop
endfacet
facet normal -3.377316409775731e-32 6.047221949936255e-33 1.0
  outer loop
    vertex 3.535331853275974 4.0538136302940595 2.000000000000006
    vertex 3.2908965343808476 1.7405691931397183 2.000000000000006
    vertex 3.570831958986444 1.1402457377772452 2.000000000000006
  endloop
endfacet
facet normal -3.377316409775731e-32 6.047221949936255e-33 1.0
  outer loop
    vertex 3.535331853275974 4.0538136302940595 2.000000000000006
    vertex 3.570831958986444 1.1402457377772452 2.000000000000006
    vertex 4.213244437154385 3.375901046415646 2.000000000000006
  endloop
endfacet
facet normal -3.377316409775731e-32 6.047221949936255e-33 1.0
  outer loop
    vertex 4.213244437154385 3.375901046415646 2.000000000000006
    vertex 3.570831958986444 1.1402457377772452 2.000000000000006
    vertex 3.7422694614463867 0.5004322682740404 2.000000000000006
  endloop
endfacet
facet normal -3.377316409775731e-32 6.047221949936255e-33 1.0
  outer loop
    vertex 4.213244437154385 3.375901046415646 2.000000000000006
    vertex 3.7422694614463867 0.5004322682740404 2.000000000000006
    vertex 3.7999999999999994 -0.1594308068602942 2.000000000000006
  endloop
endfacet
facet normal -3.377316409775731e-32 6.047221949936255e-33 1.0
  outer loop
    vertex 4.213244437154385 3.375901046415646 2.000000000000006
    vertex 3.7999999999999994 -0.1594308068602942 2.000000000000006
    vertex 4.213244437154378 -3.6947626601362806 2.000000000000006
  endloop
endfacet
facet normal -3.377316409775731e-32 6.047221949936255e-33 1.0
  outer loop
    vertex 4.213244437154385 3.375901046415646 2.000000000000006
    vertex 4.213244437154378 -3.6947626601362806 2.000000000000006
    vertex 4.763139720814412 -2.9094308068603154 2.000000000000006
  endloop
endfacet
facet normal -3.377316409775731e-32 6.047221949936255e-33 1.0
  outer loop
    vertex 4.213244437154385 3.375901046415646 2.000000000000006
    vertex 4.763139720814412 -2.9094308068603154 2.000000000000006
    vertex 4.763139720814417 2.5905691931396793 2.000000000000006
  endloop
endfacet
facet normal -3.377316409775731e-32 6.047221949936255e-33 1.0
  outer loop
    vertex 4.763139720814417 2.5905691931396793 2.000000000000006
    vertex 4.763139720814412 -2.9094308068603154 2.000000000000006
    vertex 5.168309414322495 -2.040541595151494 2.000000000000006
  endloop
endfacet
facet normal -3.377316409775731e-32 6.047221949936255e-33 1.0
  outer loop
    vertex 4.763139720814417 2.5905691931396793 2.000000000000006
    vertex 5.168309414322495 -2.040541595151494 2.000000000000006
    vertex 5.168309414322498 1.7216799814308583 2.000000000000006
  endloop
endfacet
facet normal -3.377316409775731e-32 6.047221949936255e-33 1.0
  outer loop
    vertex 5.168309414322498 1.7216799814308583 2.000000000000006
    vertex 5.168309414322495 -2.040541595151494 2.000000000000006
    vertex 5.416442641567143 -1.1144957840284344 2.000000000000006
  endloop
endfacet
facet normal -3.377316409775731e-32 6.047221949936255e-33 1.0
  outer loop
    vertex 5.168309414322498 1.7216799814308583 2.000000000000006
    vertex 5.416442641567143 -1.1144957840284344 2.000000000000006
    vertex 5.416442641567146 0.7956341703077981 2.000000000000006
  endloop
endfacet
facet normal -3.377316409775731e-32 6.047221949936255e-33 1.0
  outer loop
    vertex 5.416442641567146 0.7956341703077981 2.000000000000006
    vertex 5.416442641567143 -1.1144957840284344 2.000000000000006
    vertex 5.500000000000001 -0.1594308068603178 2.000000000000006
  endloop
endfacet
facet normal 0.25881904510252024 -0.9659258262890684 0.0
  outer loop
    vertex 1.8811107882911764 -5.32774022118281 2.000000000000006
    vertex 0.9550649771681152 -5.575873448427458 5.639932965095795e-15
    vertex 1.8811107882911764 -5.32774022118281 5.639932965095795e-15
  endloop
endfacet
facet normal 0.25881904510252024 -0.9659258262890684 0.0
  outer loop
    vertex 0.9550649771681152 -5.575873448427458 5.639932965095795e-15
    vertex 1.8811107882911764 -5.32774022118281 2.000000000000006
    vertex 0.9550649771681152 -5.575873448427458 2.000000000000006
  endloop
endfacet
facet normal -0.8191520442889902 0.5735764363510486 0.0
  outer loop
    vertex -4.213244437154368 3.3759010464156667 2.000000000000006
    vertex -4.7631397208144035 2.590569193139703 5.639932965095795e-15
    vertex -4.7631397208144035 2.590569193139703 2.000000000000006
  endloop
endfacet
facet normal -0.8191520442889902 0.5735764363510486 0.0
  outer loop
    vertex -4.7631397208144035 2.590569193139703 5.639932965095795e-15
    vertex -4.213244437154368 3.3759010464156667 2.000000000000006
    vertex -4.213244437154368 3.3759010464156667 5.639932965095795e-15
  endloop
endfacet
facet normal -0.25881904510251225 -0.9659258262890706 -4.750551979975211e-16
  outer loop
    vertex 1.2996765446375096 3.411401152126149 2.000000000000006
    vertex 0.6598630751343025 3.582838654586083 8.459899447643692e-15
    vertex 1.2996765446375091 3.4114011521261505 8.459899447643692e-15
  endloop
endfacet
facet normal -0.25881904510251225 -0.9659258262890706 -4.750551979975211e-16
  outer loop
    vertex 0.6598630751343025 3.582838654586083 8.459899447643692e-15
    vertex 1.2996765446375096 3.411401152126149 2.000000000000006
    vertex 0.6598630751343028 3.5828386545860824 2.000000000000006
  endloop
endfacet
facet normal -0.42261826174069095 -0.9063077870366538 -5.124125935102906e-16
  outer loop
    vertex 1.8999999999999697 3.1314657275205704 2.000000000000006
    vertex 1.2996765446375091 3.4114011521261505 8.459899447643692e-15
    vertex 1.8999999999999704 3.131465727520571 8.459899447643692e-15
  endloop
endfacet
facet normal -0.42261826174069095 -0.9063077870366538 -5.124125935102906e-16
  outer loop
    vertex 1.2996765446375091 3.4114011521261505 8.459899447643692e-15
    vertex 1.8999999999999697 3.1314657275205704 2.000000000000006
    vertex 1.2996765446375096 3.411401152126149 2.000000000000006
  endloop
endfacet
facet normal -0.5735764363510387 -0.819152044288997 -5.873528296323726e-16
  outer loop
    vertex 2.442592916808822 2.751538076991825 2.000000000000006
    vertex 1.8999999999999704 3.131465727520571 8.459899447643692e-15
    vertex 2.4425929168088225 2.7515380769918263 8.459899447643692e-15
  endloop
endfacet
facet normal -0.5735764363510387 -0.819152044288997 -5.873528296323726e-16
  outer loop
    vertex 1.8999999999999704 3.131465727520571 8.459899447643692e-15
    vertex 2.442592916808822 2.751538076991825 2.000000000000006
    vertex 1.8999999999999697 3.1314657275205704 2.000000000000006
  endloop
endfacet
facet normal -0.7071067811865406 -0.7071067811865546 -6.182622379421571e-16
  outer loop
    vertex 2.910968883852093 2.283162109948563 2.000000000000006
    vertex 2.4425929168088225 2.7515380769918263 8.459899447643692e-15
    vertex 2.9109688838520937 2.2831621099485644 8.459899447643692e-15
  endloop
endfacet
facet normal -0.7071067811865406 -0.7071067811865546 -6.182622379421571e-16
  outer loop
    vertex 2.4425929168088225 2.7515380769918263 8.459899447643692e-15
    vertex 2.910968883852093 2.283162109948563 2.000000000000006
    vertex 2.442592916808822 2.751538076991825 2.000000000000006
  endloop
endfacet
facet normal -0.25881904510252646 0.9659258262890668 -7.3388108857921665e-16
  outer loop
    vertex 0.659863075134354 -3.9017002683067004 2.000000000000006
    vertex 1.2996765446375589 -3.730262765846759 8.459899447643692e-15
    vertex 0.6598630751343549 -3.9017002683067017 8.459899447643692e-15
  endloop
endfacet
facet normal -0.25881904510252646 0.9659258262890668 -7.3388108857921665e-16
  outer loop
    vertex 1.2996765446375589 -3.730262765846759 8.459899447643692e-15
    vertex 0.659863075134354 -3.9017002683067004 2.000000000000006
    vertex 1.299676544637559 -3.7302627658467578 2.000000000000006
  endloop
endfacet
facet normal -0.08715574274766333 0.9961946980917451 -3.856429532981214e-16
  outer loop
    vertex 2.009226118815377e-14 -3.9594308068603135 2.000000000000006
    vertex 0.6598630751343549 -3.9017002683067017 8.459899447643692e-15
    vertex 2.0797252808790744e-14 -3.9594308068603135 8.459899447643692e-15
  endloop
endfacet
facet normal -0.08715574274766333 0.9961946980917451 -3.856429532981214e-16
  outer loop
    vertex 0.6598630751343549 -3.9017002683067017 8.459899447643692e-15
    vertex 2.009226118815377e-14 -3.9594308068603135 2.000000000000006
    vertex 0.659863075134354 -3.9017002683067004 2.000000000000006
  endloop
endfacet
facet normal 0.08715574274765259 0.996194698091746 -3.425328113762657e-16
  outer loop
    vertex -0.6598630751343145 -3.9017002683067075 2.000000000000006
    vertex 2.0797252808790744e-14 -3.9594308068603135 8.459899447643692e-15
    vertex -0.6598630751343149 -3.901700268306709 8.459899447643692e-15
  endloop
endfacet
facet normal 0.08715574274765259 0.996194698091746 -3.425328113762657e-16
  outer loop
    vertex 2.0797252808790744e-14 -3.9594308068603135 8.459899447643692e-15
    vertex -0.6598630751343145 -3.9017002683067075 2.000000000000006
    vertex 2.009226118815377e-14 -3.9594308068603135 2.000000000000006
  endloop
endfacet
facet normal 0.2588190451025153 0.9659258262890699 -5.378127416988026e-16
  outer loop
    vertex -1.2996765446375211 -3.7302627658467724 2.000000000000006
    vertex -0.6598630751343149 -3.901700268306709 8.459899447643692e-15
    vertex -1.2996765446375211 -3.7302627658467733 8.459899447643692e-15
  endloop
endfacet
facet normal 0.2588190451025153 0.9659258262890699 -5.378127416988026e-16
  outer loop
    vertex -0.6598630751343149 -3.901700268306709 8.459899447643692e-15
    vertex -1.2996765446375211 -3.7302627658467724 2.000000000000006
    vertex -0.6598630751343145 -3.9017002683067075 2.000000000000006
  endloop
endfacet
facet normal 0.4226182617406948 0.9063077870366522 -2.83984181438054e-16
  outer loop
    vertex -1.899999999999981 -3.450327341241191 2.000000000000006
    vertex -1.2996765446375211 -3.7302627658467733 8.459899447643692e-15
    vertex -1.8999999999999806 -3.450327341241192 8.459899447643692e-15
  endloop
endfacet
facet normal 0.4226182617406948 0.9063077870366522 -2.83984181438054e-16
  outer loop
    vertex -1.2996765446375211 -3.7302627658467733 8.459899447643692e-15
    vertex -1.899999999999981 -3.450327341241191 2.000000000000006
    vertex -1.2996765446375211 -3.7302627658467724 2.000000000000006
  endloop
endfacet
facet normal 0.5735764363510412 0.8191520442889952 -4.297377337554293e-16
  outer loop
    vertex -2.4425929168088314 -3.0703996907124442 2.000000000000006
    vertex -1.8999999999999806 -3.450327341241192 8.459899447643692e-15
    vertex -2.442592916808832 -3.0703996907124456 8.459899447643692e-15
  endloop
endfacet
facet normal 0.5735764363510412 0.8191520442889952 -4.297377337554293e-16
  outer loop
    vertex -1.8999999999999806 -3.450327341241192 8.459899447643692e-15
    vertex -2.4425929168088314 -3.0703996907124442 2.000000000000006
    vertex -1.899999999999981 -3.450327341241191 2.000000000000006
  endloop
endfacet
facet normal 0.7071067811865431 0.7071067811865519 -6.924537064952144e-16
  outer loop
    vertex -2.9109688838521004 -2.602023723669181 2.000000000000006
    vertex -2.442592916808832 -3.0703996907124456 8.459899447643692e-15
    vertex -2.9109688838521013 -2.602023723669182 8.459899447643692e-15
  endloop
endfacet
facet normal 0.7071067811865431 0.7071067811865519 -6.924537064952144e-16
  outer loop
    vertex -2.442592916808832 -3.0703996907124456 8.459899447643692e-15
    vertex -2.9109688838521004 -2.602023723669181 2.000000000000006
    vertex -2.4425929168088314 -3.0703996907124442 2.000000000000006
  endloop
endfacet
facet normal 0.8191520442889879 0.5735764363510516 -6.210468342265157e-16
  outer loop
    vertex -3.2908965343808547 -2.0594308068603353 8.459899447643692e-15
    vertex -2.9109688838521004 -2.602023723669181 2.000000000000006
    vertex -2.9109688838521013 -2.602023723669182 8.459899447643692e-15
  endloop
endfacet
facet normal 0.8191520442889879 0.5735764363510516 -6.210468342265157e-16
  outer loop
    vertex -2.9109688838521004 -2.602023723669181 2.000000000000006
    vertex -3.2908965343808547 -2.0594308068603353 8.459899447643692e-15
    vertex -3.2908965343808543 -2.059430806860335 2.000000000000006
  endloop
endfacet
facet normal 0.9063077870366473 0.4226182617407054 -4.502674270000036e-16
  outer loop
    vertex -3.5708319589864437 -1.459107351497879 8.459899447643692e-15
    vertex -3.2908965343808543 -2.059430806860335 2.000000000000006
    vertex -3.2908965343808547 -2.0594308068603353 8.459899447643692e-15
  endloop
endfacet
facet normal 0.9063077870366473 0.4226182617407054 -4.502674270000036e-16
  outer loop
    vertex -3.2908965343808543 -2.059430806860335 2.000000000000006
    vertex -3.5708319589864437 -1.459107351497879 8.459899447643692e-15
    vertex -3.570831958986443 -1.4591073514978785 2.000000000000006
  endloop
endfacet
facet normal 0.9659258262890665 0.2588190451025276 -4.232122815218707e-16
  outer loop
    vertex -3.7422694614463867 -0.819293881994675 8.459899447643692e-15
    vertex -3.570831958986443 -1.4591073514978785 2.000000000000006
    vertex -3.5708319589864437 -1.459107351497879 8.459899447643692e-15
  endloop
endfacet
facet normal 0.9659258262890665 0.2588190451025276 -4.232122815218707e-16
  outer loop
    vertex -3.570831958986443 -1.4591073514978785 2.000000000000006
    vertex -3.7422694614463867 -0.819293881994675 8.459899447643692e-15
    vertex -3.742269461446386 -0.8192938819946743 2.000000000000006
  endloop
endfacet
facet normal 0.9961946980917451 0.08715574274766491 -5.411239575641747e-16
  outer loop
    vertex -3.8000000000000007 -0.15943080686034072 8.459899447643692e-15
    vertex -3.742269461446386 -0.8192938819946743 2.000000000000006
    vertex -3.7422694614463867 -0.819293881994675 8.459899447643692e-15
  endloop
endfacet
facet normal 0.9961946980917451 0.08715574274766491 -5.411239575641747e-16
  outer loop
    vertex -3.742269461446386 -0.8192938819946743 2.000000000000006
    vertex -3.8000000000000007 -0.15943080686034072 8.459899447643692e-15
    vertex -3.7999999999999994 -0.15943080686034072 2.000000000000006
  endloop
endfacet
facet normal 0.9961946980917462 -0.0871557427476509 -5.574537512724074e-16
  outer loop
    vertex -3.742269461446396 0.500432268273996 8.459899447643692e-15
    vertex -3.7999999999999994 -0.15943080686034072 2.000000000000006
    vertex -3.8000000000000007 -0.15943080686034072 8.459899447643692e-15
  endloop
endfacet
facet normal 0.9961946980917462 -0.0871557427476509 -5.574537512724074e-16
  outer loop
    vertex -3.7999999999999994 -0.15943080686034072 2.000000000000006
    vertex -3.742269461446396 0.500432268273996 8.459899447643692e-15
    vertex -3.742269461446395 0.5004322682739946 2.000000000000006
  endloop
endfacet
facet normal 0.9659258262890702 -0.25881904510251363 -4.46145434140213e-16
  outer loop
    vertex -3.742269461446396 0.500432268273996 8.459899447643692e-15
    vertex -3.570831958986461 1.140245737777202 2.000000000000006
    vertex -3.742269461446395 0.5004322682739946 2.000000000000006
  endloop
endfacet
facet normal 0.9659258262890702 -0.25881904510251363 -4.46145434140213e-16
  outer loop
    vertex -3.570831958986461 1.140245737777202 2.000000000000006
    vertex -3.742269461446396 0.500432268273996 8.459899447643692e-15
    vertex -3.570831958986462 1.1402457377772022 8.459899447643692e-15
  endloop
endfacet
facet normal 0.9063077870366529 -0.42261826174069295 -2.1787684191807265e-16
  outer loop
    vertex -3.570831958986462 1.1402457377772022 8.459899447643692e-15
    vertex -3.290896534380881 1.740569193139662 2.000000000000006
    vertex -3.570831958986461 1.140245737777202 2.000000000000006
  endloop
endfacet
facet normal 0.9063077870366529 -0.42261826174069295 -2.1787684191807265e-16
  outer loop
    vertex -3.290896534380881 1.740569193139662 2.000000000000006
    vertex -3.570831958986462 1.1402457377772022 8.459899447643692e-15
    vertex -3.290896534380881 1.7405691931396625 8.459899447643692e-15
  endloop
endfacet
facet normal 0.8191520442889958 -0.5735764363510403 -3.1517073375394965e-16
  outer loop
    vertex -3.290896534380881 1.7405691931396625 8.459899447643692e-15
    vertex -2.910968883852134 2.2831621099485138 2.000000000000006
    vertex -3.290896534380881 1.740569193139662 2.000000000000006
  endloop
endfacet
facet normal 0.8191520442889958 -0.5735764363510403 -3.1517073375394965e-16
  outer loop
    vertex -2.910968883852134 2.2831621099485138 2.000000000000006
    vertex -3.290896534380881 1.7405691931396625 8.459899447643692e-15
    vertex -2.9109688838521355 2.283162109948514 8.459899447643692e-15
  endloop
endfacet
facet normal 0.707106781186553 -0.7071067811865421 -5.626186365273622e-16
  outer loop
    vertex -2.9109688838521355 2.283162109948514 8.459899447643692e-15
    vertex -2.4425929168088714 2.7515380769917837 2.000000000000006
    vertex -2.910968883852134 2.2831621099485138 2.000000000000006
  endloop
endfacet
facet normal 0.707106781186553 -0.7071067811865421 -5.626186365273622e-16
  outer loop
    vertex -2.4425929168088714 2.7515380769917837 2.000000000000006
    vertex -2.9109688838521355 2.283162109948514 8.459899447643692e-15
    vertex -2.4425929168088727 2.7515380769917845 8.459899447643692e-15
  endloop
endfacet
facet normal 0.5735764363510526 -0.8191520442889871 -4.656235340683051e-16
  outer loop
    vertex -1.9000000000000257 3.131465727520538 2.000000000000006
    vertex -2.4425929168088727 2.7515380769917845 8.459899447643692e-15
    vertex -1.9000000000000266 3.1314657275205384 8.459899447643692e-15
  endloop
endfacet
facet normal 0.5735764363510526 -0.8191520442889871 -4.656235340683051e-16
  outer loop
    vertex -2.4425929168088727 2.7515380769917845 8.459899447643692e-15
    vertex -1.9000000000000257 3.131465727520538 2.000000000000006
    vertex -2.4425929168088714 2.7515380769917837 2.000000000000006
  endloop
endfacet
facet normal 0.42261826174070677 -0.9063077870366467 -5.479868033674187e-16
  outer loop
    vertex -1.2996765446375698 3.411401152126127 2.000000000000006
    vertex -1.9000000000000266 3.1314657275205384 8.459899447643692e-15
    vertex -1.2996765446375707 3.4114011521261287 8.459899447643692e-15
  endloop
endfacet
facet normal 0.42261826174070677 -0.9063077870366467 -5.479868033674187e-16
  outer loop
    vertex -1.9000000000000266 3.1314657275205384 8.459899447643692e-15
    vertex -1.2996765446375698 3.411401152126127 2.000000000000006
    vertex -1.9000000000000257 3.131465727520538 2.000000000000006
  endloop
endfacet
facet normal 0.25881904510252873 -0.9659258262890661 -4.4161944043446846e-16
  outer loop
    vertex -0.659863075134366 3.5828386545860718 2.000000000000006
    vertex -1.2996765446375707 3.4114011521261287 8.459899447643692e-15
    vertex -0.6598630751343669 3.5828386545860718 8.459899447643692e-15
  endloop
endfacet
facet normal 0.25881904510252873 -0.9659258262890661 -4.4161944043446846e-16
  outer loop
    vertex -1.2996765446375707 3.4114011521261287 8.459899447643692e-15
    vertex -0.659863075134366 3.5828386545860718 2.000000000000006
    vertex -1.2996765446375698 3.411401152126127 2.000000000000006
  endloop
endfacet
facet normal 0.08715574274766597 -0.9961946980917449 -1.9510762801944946e-16
  outer loop
    vertex -3.242961454930082e-14 3.6405691931396857 2.000000000000006
    vertex -0.6598630751343669 3.5828386545860718 8.459899447643692e-15
    vertex -3.242961454930082e-14 3.6405691931396866 8.459899447643692e-15
  endloop
endfacet
facet normal 0.08715574274766597 -0.9961946980917449 -1.9510762801944946e-16
  outer loop
    vertex -0.6598630751343669 3.5828386545860718 8.459899447643692e-15
    vertex -3.242961454930082e-14 3.6405691931396857 2.000000000000006
    vertex -0.659863075134366 3.5828386545860718 2.000000000000006
  endloop
endfacet
facet normal -0.08715574274764942 -0.9961946980917464 -3.475404304583186e-16
  outer loop
    vertex 0.6598630751343028 3.5828386545860824 2.000000000000006
    vertex -3.242961454930082e-14 3.6405691931396866 8.459899447643692e-15
    vertex 0.6598630751343025 3.582838654586083 8.459899447643692e-15
  endloop
endfacet
facet normal -0.08715574274764942 -0.9961946980917464 -3.475404304583186e-16
  outer loop
    vertex -3.242961454930082e-14 3.6405691931396866 8.459899447643692e-15
    vertex 0.6598630751343028 3.5828386545860824 2.000000000000006
    vertex -3.242961454930082e-14 3.6405691931396857 2.000000000000006
  endloop
endfacet
facet normal -0.8191520442889948 -0.5735764363510419 0.0
  outer loop
    vertex -4.763139720814426 -2.909430806860291 2.000000000000006
    vertex -4.213244437154397 -3.6947626601362593 5.639932965095795e-15
    vertex -4.213244437154397 -3.6947626601362593 2.000000000000006
  endloop
endfacet
facet normal -0.8191520442889948 -0.5735764363510419 0.0
  outer loop
    vertex -4.213244437154397 -3.6947626601362593 5.639932965095795e-15
    vertex -4.763139720814426 -2.909430806860291 2.000000000000006
    vertex -4.763139720814426 -2.909430806860291 5.639932965095795e-15
  endloop
endfacet
facet normal 0.4226182617406994 -0.90630778703665 0.0
  outer loop
    vertex 2.7499999999999987 -4.9225705276747265 2.000000000000006
    vertex 1.8811107882911764 -5.32774022118281 5.639932965095795e-15
    vertex 2.7499999999999987 -4.9225705276747265 5.639932965095795e-15
  endloop
endfacet
facet normal 0.4226182617406994 -0.90630778703665 0.0
  outer loop
    vertex 1.8811107882911764 -5.32774022118281 5.639932965095795e-15
    vertex 2.7499999999999987 -4.9225705276747265 2.000000000000006
    vertex 1.8811107882911764 -5.32774022118281 2.000000000000006
  endloop
endfacet
facet normal 0.9961946980917455 0.08715574274765786 -0.0
  outer loop
    vertex 5.416442641567146 0.7956341703077981 5.639932965095795e-15
    vertex 5.500000000000001 -0.1594308068603178 2.000000000000006
    vertex 5.500000000000001 -0.1594308068603178 5.639932965095795e-15
  endloop
endfacet
facet normal 0.9961946980917455 0.08715574274765786 -0.0
  outer loop
    vertex 5.500000000000001 -0.1594308068603178 2.000000000000006
    vertex 5.416442641567146 0.7956341703077981 5.639932965095795e-15
    vertex 5.416442641567146 0.7956341703077981 2.000000000000006
  endloop
endfacet
facet normal 0.9659258262890684 0.2588190451025206 -0.0
  outer loop
    vertex 5.168309414322498 1.7216799814308583 5.639932965095795e-15
    vertex 5.416442641567146 0.7956341703077981 2.000000000000006
    vertex 5.416442641567146 0.7956341703077981 5.639932965095795e-15
  endloop
endfacet
facet normal 0.9659258262890684 0.2588190451025206 -0.0
  outer loop
    vertex 5.416442641567146 0.7956341703077981 2.000000000000006
    vertex 5.168309414322498 1.7216799814308583 5.639932965095795e-15
    vertex 5.168309414322498 1.7216799814308583 2.000000000000006
  endloop
endfacet
facet normal 0.9063077870366507 0.4226182617406979 -0.0
  outer loop
    vertex 4.763139720814417 2.5905691931396793 5.639932965095795e-15
    vertex 5.168309414322498 1.7216799814308583 2.000000000000006
    vertex 5.168309414322498 1.7216799814308583 5.639932965095795e-15
  endloop
endfacet
facet normal 0.9063077870366507 0.4226182617406979 -0.0
  outer loop
    vertex 5.168309414322498 1.7216799814308583 2.000000000000006
    vertex 4.763139720814417 2.5905691931396793 5.639932965095795e-15
    vertex 4.763139720814417 2.5905691931396793 2.000000000000006
  endloop
endfacet
facet normal 0.7071067811865479 -0.7071067811865472 -0.0
  outer loop
    vertex 4.213244437154378 -3.6947626601362806 5.639932965095795e-15
    vertex 3.5353318532759657 -4.372675244014694 2.000000000000006
    vertex 3.5353318532759657 -4.372675244014694 5.639932965095795e-15
  endloop
endfacet
facet normal 0.7071067811865479 -0.7071067811865472 -0.0
  outer loop
    vertex 3.5353318532759657 -4.372675244014694 2.000000000000006
    vertex 4.213244437154378 -3.6947626601362806 5.639932965095795e-15
    vertex 4.213244437154378 -3.6947626601362806 2.000000000000006
  endloop
endfacet
facet normal -0.4226182617406964 0.9063077870366515 -0.0
  outer loop
    vertex -2.7499999999999867 4.603708913954107 2.000000000000006
    vertex -1.8811107882911644 5.008878607462187 5.639932965095795e-15
    vertex -2.7499999999999867 4.603708913954107 5.639932965095795e-15
  endloop
endfacet
facet normal -0.4226182617406964 0.9063077870366515 -0.0
  outer loop
    vertex -1.8811107882911644 5.008878607462187 5.639932965095795e-15
    vertex -2.7499999999999867 4.603708913954107 2.000000000000006
    vertex -1.8811107882911644 5.008878607462187 2.000000000000006
  endloop
endfacet
facet normal -0.08715574274765572 0.9961946980917458 -0.0
  outer loop
    vertex -0.9550649771681033 5.257011834706834 2.000000000000006
    vertex 1.2337353361147052e-14 5.340569193139687 5.639932965095795e-15
    vertex -0.9550649771681033 5.257011834706834 5.639932965095795e-15
  endloop
endfacet
facet normal -0.08715574274765572 0.9961946980917458 -0.0
  outer loop
    vertex 1.2337353361147052e-14 5.340569193139687 5.639932965095795e-15
    vertex -0.9550649771681033 5.257011834706834 2.000000000000006
    vertex 1.2337353361147052e-14 5.340569193139687 2.000000000000006
  endloop
endfacet
facet normal -0.25881904510251896 0.965925826289069 -0.0
  outer loop
    vertex -1.8811107882911644 5.008878607462187 2.000000000000006
    vertex -0.9550649771681033 5.257011834706834 5.639932965095795e-15
    vertex -1.8811107882911644 5.008878607462187 5.639932965095795e-15
  endloop
endfacet
facet normal -0.25881904510251896 0.965925826289069 -0.0
  outer loop
    vertex -0.9550649771681033 5.257011834706834 5.639932965095795e-15
    vertex -1.8811107882911644 5.008878607462187 2.000000000000006
    vertex -0.9550649771681033 5.257011834706834 2.000000000000006
  endloop
endfacet
facet normal 0.8191520442889909 -0.5735764363510474 -0.0
  outer loop
    vertex 4.763139720814412 -2.9094308068603154 5.639932965095795e-15
    vertex 4.213244437154378 -3.6947626601362806 2.000000000000006
    vertex 4.213244437154378 -3.6947626601362806 5.639932965095795e-15
  endloop
endfacet
facet normal 0.8191520442889909 -0.5735764363510474 -0.0
  outer loop
    vertex 4.213244437154378 -3.6947626601362806 2.000000000000006
    vertex 4.763139720814412 -2.9094308068603154 5.639932965095795e-15
    vertex 4.763139720814412 -2.9094308068603154 2.000000000000006
  endloop
endfacet
facet normal 0.5735764363510474 0.8191520442889909 -0.0
  outer loop
    vertex 2.7500000000000098 4.603708913954093 2.000000000000006
    vertex 3.535331853275974 4.0538136302940595 5.639932965095795e-15
    vertex 2.7500000000000098 4.603708913954093 5.639932965095795e-15
  endloop
endfacet
facet normal 0.5735764363510474 0.8191520442889909 -0.0
  outer loop
    vertex 3.535331853275974 4.0538136302940595 5.639932965095795e-15
    vertex 2.7500000000000098 4.603708913954093 2.000000000000006
    vertex 3.535331853275974 4.0538136302940595 2.000000000000006
  endloop
endfacet
facet normal 0.08715574274766064 0.9961946980917453 -0.0
  outer loop
    vertex 1.2337353361147052e-14 5.340569193139687 2.000000000000006
    vertex 0.9550649771681301 5.257011834706828 5.639932965095795e-15
    vertex 1.2337353361147052e-14 5.340569193139687 5.639932965095795e-15
  endloop
endfacet
facet normal 0.08715574274766064 0.9961946980917453 -0.0
  outer loop
    vertex 0.9550649771681301 5.257011834706828 5.639932965095795e-15
    vertex 1.2337353361147052e-14 5.340569193139687 2.000000000000006
    vertex 0.9550649771681301 5.257011834706828 2.000000000000006
  endloop
endfacet
facet normal 0.9063077870366502 -0.42261826174069905 -0.0
  outer loop
    vertex 5.168309414322495 -2.040541595151494 5.639932965095795e-15
    vertex 4.763139720814412 -2.9094308068603154 2.000000000000006
    vertex 4.763139720814412 -2.9094308068603154 5.639932965095795e-15
  endloop
endfacet
facet normal 0.9063077870366502 -0.42261826174069905 -0.0
  outer loop
    vertex 4.763139720814412 -2.9094308068603154 2.000000000000006
    vertex 5.168309414322495 -2.040541595151494 5.639932965095795e-15
    vertex 5.168309414322495 -2.040541595151494 2.000000000000006
  endloop
endfacet
facet normal 0.8191520442889928 0.5735764363510449 -0.0
  outer loop
    vertex 4.213244437154385 3.375901046415646 5.639932965095795e-15
    vertex 4.763139720814417 2.5905691931396793 2.000000000000006
    vertex 4.763139720814417 2.5905691931396793 5.639932965095795e-15
  endloop
endfacet
facet normal 0.8191520442889928 0.5735764363510449 -0.0
  outer loop
    vertex 4.763139720814417 2.5905691931396793 2.000000000000006
    vertex 4.213244437154385 3.375901046415646 5.639932965095795e-15
    vertex 4.213244437154385 3.375901046415646 2.000000000000006
  endloop
endfacet
facet normal 0.42261826174070216 0.9063077870366487 -0.0
  outer loop
    vertex 1.8811107882911902 5.008878607462179 2.000000000000006
    vertex 2.7500000000000098 4.603708913954093 5.639932965095795e-15
    vertex 1.8811107882911902 5.008878607462179 5.639932965095795e-15
  endloop
endfacet
facet normal 0.42261826174070216 0.9063077870366487 -0.0
  outer loop
    vertex 2.7500000000000098 4.603708913954093 5.639932965095795e-15
    vertex 1.8811107882911902 5.008878607462179 2.000000000000006
    vertex 2.7500000000000098 4.603708913954093 2.000000000000006
  endloop
endfacet
facet normal 0.9659258262890682 -0.2588190451025214 -0.0
  outer loop
    vertex 5.416442641567143 -1.1144957840284344 5.639932965095795e-15
    vertex 5.168309414322495 -2.040541595151494 2.000000000000006
    vertex 5.168309414322495 -2.040541595151494 5.639932965095795e-15
  endloop
endfacet
facet normal 0.9659258262890682 -0.2588190451025214 -0.0
  outer loop
    vertex 5.168309414322495 -2.040541595151494 2.000000000000006
    vertex 5.416442641567143 -1.1144957840284344 5.639932965095795e-15
    vertex 5.416442641567143 -1.1144957840284344 2.000000000000006
  endloop
endfacet
facet normal 0.7071067811865491 0.707106781186546 -0.0
  outer loop
    vertex 3.535331853275974 4.0538136302940595 5.639932965095795e-15
    vertex 4.213244437154385 3.375901046415646 2.000000000000006
    vertex 4.213244437154385 3.375901046415646 5.639932965095795e-15
  endloop
endfacet
facet normal 0.7071067811865491 0.707106781186546 -0.0
  outer loop
    vertex 4.213244437154385 3.375901046415646 2.000000000000006
    vertex 3.535331853275974 4.0538136302940595 5.639932965095795e-15
    vertex 3.535331853275974 4.0538136302940595 2.000000000000006
  endloop
endfacet
facet normal 0.9961946980917455 -0.08715574274766001 -0.0
  outer loop
    vertex 5.500000000000001 -0.1594308068603178 5.639932965095795e-15
    vertex 5.416442641567143 -1.1144957840284344 2.000000000000006
    vertex 5.416442641567143 -1.1144957840284344 5.639932965095795e-15
  endloop
endfacet
facet normal 0.9961946980917455 -0.08715574274766001 -0.0
  outer loop
    vertex 5.416442641567143 -1.1144957840284344 2.000000000000006
    vertex 5.500000000000001 -0.1594308068603178 5.639932965095795e-15
    vertex 5.500000000000001 -0.1594308068603178 2.000000000000006
  endloop
endfacet
facet normal 0.2588190451025226 0.965925826289068 -0.0
  outer loop
    vertex 0.9550649771681301 5.257011834706828 2.000000000000006
    vertex 1.8811107882911902 5.008878607462179 5.639932965095795e-15
    vertex 0.9550649771681301 5.257011834706828 5.639932965095795e-15
  endloop
endfacet
facet normal 0.2588190451025226 0.965925826289068 -0.0
  outer loop
    vertex 1.8811107882911902 5.008878607462179 5.639932965095795e-15
    vertex 0.9550649771681301 5.257011834706828 2.000000000000006
    vertex 1.8811107882911902 5.008878607462179 2.000000000000006
  endloop
endfacet
facet normal -0.5735764363510442 0.8191520442889934 -0.0
  outer loop
    vertex -3.5353318532759537 4.053813630294076 2.000000000000006
    vertex -2.7499999999999867 4.603708913954107 5.639932965095795e-15
    vertex -3.5353318532759537 4.053813630294076 5.639932965095795e-15
  endloop
endfacet
facet normal -0.5735764363510442 0.8191520442889934 -0.0
  outer loop
    vertex -2.7499999999999867 4.603708913954107 5.639932965095795e-15
    vertex -3.5353318532759537 4.053813630294076 2.000000000000006
    vertex -2.7499999999999867 4.603708913954107 2.000000000000006
  endloop
endfacet
facet normal 0.0 0.0 -1.0
  outer loop
    vertex -3.5353318532759537 4.053813630294076 5.639932965095795e-15
    vertex -3.8000000000000007 -0.15943080686034072 8.459899447643692e-15
    vertex -4.213244437154368 3.3759010464156667 5.639932965095795e-15
  endloop
endfacet
facet normal 0.0 0.0 -1.0
  outer loop
    vertex -3.8000000000000007 -0.15943080686034072 8.459899447643692e-15
    vertex -3.5353318532759537 4.053813630294076 5.639932965095795e-15
    vertex -3.742269461446396 0.500432268273996 8.459899447643692e-15
  endloop
endfacet
facet normal 0.0 0.0 -1.0
  outer loop
    vertex -3.742269461446396 0.500432268273996 8.459899447643692e-15
    vertex -3.5353318532759537 4.053813630294076 5.639932965095795e-15
    vertex -3.570831958986462 1.1402457377772022 8.459899447643692e-15
  endloop
endfacet
facet normal 0.0 0.0 -1.0
  outer loop
    vertex -3.570831958986462 1.1402457377772022 8.459899447643692e-15
    vertex -3.5353318532759537 4.053813630294076 5.639932965095795e-15
    vertex -3.290896534380881 1.7405691931396625 8.459899447643692e-15
  endloop
endfacet
facet normal 0.0 0.0 -1.0
  outer loop
    vertex -3.290896534380881 1.7405691931396625 8.459899447643692e-15
    vertex -3.5353318532759537 4.053813630294076 5.639932965095795e-15
    vertex -2.7499999999999867 4.603708913954107 5.639932965095795e-15
  endloop
endfacet
facet normal 0.0 0.0 -1.0
  outer loop
    vertex -3.290896534380881 1.7405691931396625 8.459899447643692e-15
    vertex -2.7499999999999867 4.603708913954107 5.639932965095795e-15
    vertex -2.9109688838521355 2.283162109948514 8.459899447643692e-15
  endloop
endfacet
facet normal 0.0 0.0 -1.0
  outer loop
    vertex -2.9109688838521355 2.283162109948514 8.459899447643692e-15
    vertex -2.7499999999999867 4.603708913954107 5.639932965095795e-15
    vertex -2.4425929168088727 2.7515380769917845 8.459899447643692e-15
  endloop
endfacet
facet normal 0.0 0.0 -1.0
  outer loop
    vertex -2.4425929168088727 2.7515380769917845 8.459899447643692e-15
    vertex -2.7499999999999867 4.603708913954107 5.639932965095795e-15
    vertex -1.8811107882911644 5.008878607462187 5.639932965095795e-15
  endloop
endfacet
facet normal 0.0 0.0 -1.0
  outer loop
    vertex -2.4425929168088727 2.7515380769917845 8.459899447643692e-15
    vertex -1.8811107882911644 5.008878607462187 5.639932965095795e-15
    vertex -1.9000000000000266 3.1314657275205384 8.459899447643692e-15
  endloop
endfacet
facet normal 0.0 0.0 -1.0
  outer loop
    vertex -1.9000000000000266 3.1314657275205384 8.459899447643692e-15
    vertex -1.8811107882911644 5.008878607462187 5.639932965095795e-15
    vertex -1.2996765446375707 3.4114011521261287 8.459899447643692e-15
  endloop
endfacet
facet normal 0.0 0.0 -1.0
  outer loop
    vertex -1.2996765446375707 3.4114011521261287 8.459899447643692e-15
    vertex -1.8811107882911644 5.008878607462187 5.639932965095795e-15
    vertex -0.9550649771681033 5.257011834706834 5.639932965095795e-15
  endloop
endfacet
facet normal 0.0 0.0 -1.0
  outer loop
    vertex -1.2996765446375707 3.4114011521261287 8.459899447643692e-15
    vertex -0.9550649771681033 5.257011834706834 5.639932965095795e-15
    vertex -0.6598630751343669 3.5828386545860718 8.459899447643692e-15
  endloop
endfacet
facet normal 0.0 0.0 -1.0
  outer loop
    vertex -0.6598630751343669 3.5828386545860718 8.459899447643692e-15
    vertex -0.9550649771681033 5.257011834706834 5.639932965095795e-15
    vertex 1.2337353361147052e-14 5.340569193139687 5.639932965095795e-15
  endloop
endfacet
facet normal 0.0 0.0 -1.0
  outer loop
    vertex -0.6598630751343669 3.5828386545860718 8.459899447643692e-15
    vertex 1.2337353361147052e-14 5.340569193139687 5.639932965095795e-15
    vertex -3.242961454930082e-14 3.6405691931396866 8.459899447643692e-15
  endloop
endfacet
facet normal 0.0 0.0 -1.0
  outer loop
    vertex -3.242961454930082e-14 3.6405691931396866 8.459899447643692e-15
    vertex 1.2337353361147052e-14 5.340569193139687 5.639932965095795e-15
    vertex 0.6598630751343025 3.582838654586083 8.459899447643692e-15
  endloop
endfacet
facet normal 0.0 0.0 -1.0
  outer loop
    vertex 0.6598630751343025 3.582838654586083 8.459899447643692e-15
    vertex 1.2337353361147052e-14 5.340569193139687 5.639932965095795e-15
    vertex 0.9550649771681301 5.257011834706828 5.639932965095795e-15
  endloop
endfacet
facet normal 0.0 0.0 -1.0
  outer loop
    vertex 0.6598630751343025 3.582838654586083 8.459899447643692e-15
    vertex 0.9550649771681301 5.257011834706828 5.639932965095795e-15
    vertex 1.2996765446375091 3.4114011521261505 8.459899447643692e-15
  endloop
endfacet
facet normal 0.0 0.0 -1.0
  outer loop
    vertex 1.2996765446375091 3.4114011521261505 8.459899447643692e-15
    vertex 0.9550649771681301 5.257011834706828 5.639932965095795e-15
    vertex 1.8811107882911902 5.008878607462179 5.639932965095795e-15
  endloop
endfacet
facet normal 0.0 0.0 -1.0
  outer loop
    vertex 1.2996765446375091 3.4114011521261505 8.459899447643692e-15
    vertex 1.8811107882911902 5.008878607462179 5.639932965095795e-15
    vertex 1.8999999999999704 3.131465727520571 8.459899447643692e-15
  endloop
endfacet
facet normal 0.0 0.0 -1.0
  outer loop
    vertex 1.8999999999999704 3.131465727520571 8.459899447643692e-15
    vertex 1.8811107882911902 5.008878607462179 5.639932965095795e-15
    vertex 2.7500000000000098 4.603708913954093 5.639932965095795e-15
  endloop
endfacet
facet normal 0.0 0.0 -1.0
  outer loop
    vertex 1.8999999999999704 3.131465727520571 8.459899447643692e-15
    vertex 2.7500000000000098 4.603708913954093 5.639932965095795e-15
    vertex 2.4425929168088225 2.7515380769918263 8.459899447643692e-15
  endloop
endfacet
facet normal 0.0 0.0 -1.0
  outer loop
    vertex 2.4425929168088225 2.7515380769918263 8.459899447643692e-15
    vertex 2.7500000000000098 4.603708913954093 5.639932965095795e-15
    vertex 2.9109688838520937 2.2831621099485644 8.459899447643692e-15
  endloop
endfacet
facet normal 0.0 0.0 -1.0
  outer loop
    vertex 2.9109688838520937 2.2831621099485644 8.459899447643692e-15
    vertex 2.7500000000000098 4.603708913954093 5.639932965095795e-15
    vertex 3.535331853275974 4.0538136302940595 5.639932965095795e-15
  endloop
endfacet
facet normal 0.0 0.0 -1.0
  outer loop
    vertex 2.9109688838520937 2.2831621099485644 8.459899447643692e-15
    vertex 3.535331853275974 4.0538136302940595 5.639932965095795e-15
    vertex 3.290896534380858 1.7405691931397027 8.459899447643692e-15
  endloop
endfacet
facet normal 0.0 0.0 -1.0
  outer loop
    vertex 3.290896534380858 1.7405691931397027 8.459899447643692e-15
    vertex 3.535331853275974 4.0538136302940595 5.639932965095795e-15
    vertex 3.5708319589864455 1.1402457377772452 8.459899447643692e-15
  endloop
endfacet
facet normal 0.0 0.0 -1.0
  outer loop
    vertex 3.5708319589864455 1.1402457377772452 8.459899447643692e-15
    vertex 3.535331853275974 4.0538136302940595 5.639932965095795e-15
    vertex 4.213244437154385 3.375901046415646 5.639932965095795e-15
  endloop
endfacet
facet normal 0.0 0.0 -1.0
  outer loop
    vertex 3.5708319589864455 1.1402457377772452 8.459899447643692e-15
    vertex 4.213244437154385 3.375901046415646 5.639932965095795e-15
    vertex 3.742269461446388 0.5004322682740404 8.459899447643692e-15
  endloop
endfacet
facet normal 0.0 0.0 -1.0
  outer loop
    vertex 3.742269461446388 0.5004322682740404 8.459899447643692e-15
    vertex 4.213244437154385 3.375901046415646 5.639932965095795e-15
    vertex 3.8000000000000007 -0.15943080686029454 8.459899447643692e-15
  endloop
endfacet
facet normal 0.0 0.0 -1.0
  outer loop
    vertex 3.8000000000000007 -0.15943080686029454 8.459899447643692e-15
    vertex 4.213244437154385 3.375901046415646 5.639932965095795e-15
    vertex 4.213244437154378 -3.6947626601362806 5.639932965095795e-15
  endloop
endfacet
facet normal 0.0 0.0 -1.0
  outer loop
    vertex 4.213244437154378 -3.6947626601362806 5.639932965095795e-15
    vertex 4.213244437154385 3.375901046415646 5.639932965095795e-15
    vertex 4.763139720814412 -2.9094308068603154 5.639932965095795e-15
  endloop
endfacet
facet normal 0.0 0.0 -1.0
  outer loop
    vertex 4.763139720814412 -2.9094308068603154 5.639932965095795e-15
    vertex 4.213244437154385 3.375901046415646 5.639932965095795e-15
    vertex 4.763139720814417 2.5905691931396793 5.639932965095795e-15
  endloop
endfacet
facet normal 0.0 0.0 -1.0
  outer loop
    vertex 4.763139720814412 -2.9094308068603154 5.639932965095795e-15
    vertex 4.763139720814417 2.5905691931396793 5.639932965095795e-15
    vertex 5.168309414322495 -2.040541595151494 5.639932965095795e-15
  endloop
endfacet
facet normal 0.0 0.0 -1.0
  outer loop
    vertex 5.168309414322495 -2.040541595151494 5.639932965095795e-15
    vertex 4.763139720814417 2.5905691931396793 5.639932965095795e-15
    vertex 5.168309414322498 1.7216799814308583 5.639932965095795e-15
  endloop
endfacet
facet normal 0.0 0.0 -1.0
  outer loop
    vertex 5.168309414322495 -2.040541595151494 5.639932965095795e-15
    vertex 5.168309414322498 1.7216799814308583 5.639932965095795e-15
    vertex 5.416442641567143 -1.1144957840284344 5.639932965095795e-15
  endloop
endfacet
facet normal 0.0 0.0 -1.0
  outer loop
    vertex 5.416442641567143 -1.1144957840284344 5.639932965095795e-15
    vertex 5.168309414322498 1.7216799814308583 5.639932965095795e-15
    vertex 5.416442641567146 0.7956341703077981 5.639932965095795e-15
  endloop
endfacet
facet normal 0.0 0.0 -1.0
  outer loop
    vertex 5.416442641567143 -1.1144957840284344 5.639932965095795e-15
    vertex 5.416442641567146 0.7956341703077981 5.639932965095795e-15
    vertex 5.500000000000001 -0.1594308068603178 5.639932965095795e-15
  endloop
endfacet
facet normal 0.0 0.0 -1.0
  outer loop
    vertex -5.41644264156714 0.7956341703078246 5.639932965095795e-15
    vertex -5.416442641567149 -1.1144957840284073 5.639932965095795e-15
    vertex -5.5 -0.15943080686029173 5.639932965095795e-15
  endloop
endfacet
facet normal 0.0 0.0 -1.0
  outer loop
    vertex -5.416442641567149 -1.1144957840284073 5.639932965095795e-15
    vertex -5.41644264156714 0.7956341703078246 5.639932965095795e-15
    vertex -5.168309414322504 -2.0405415951514683 5.639932965095795e-15
  endloop
endfacet
facet normal 0.0 0.0 -1.0
  outer loop
    vertex -5.168309414322504 -2.0405415951514683 5.639932965095795e-15
    vertex -5.41644264156714 0.7956341703078246 5.639932965095795e-15
    vertex -5.16830941432249 1.7216799814308839 5.639932965095795e-15
  endloop
endfacet
facet normal 0.0 0.0 -1.0
  outer loop
    vertex -5.168309414322504 -2.0405415951514683 5.639932965095795e-15
    vertex -5.16830941432249 1.7216799814308839 5.639932965095795e-15
    vertex -4.763139720814426 -2.909430806860291 5.639932965095795e-15
  endloop
endfacet
facet normal 0.0 0.0 -1.0
  outer loop
    vertex -4.763139720814426 -2.909430806860291 5.639932965095795e-15
    vertex -5.16830941432249 1.7216799814308839 5.639932965095795e-15
    vertex -4.7631397208144035 2.590569193139703 5.639932965095795e-15
  endloop
endfacet
facet normal 0.0 0.0 -1.0
  outer loop
    vertex -4.763139720814426 -2.909430806860291 5.639932965095795e-15
    vertex -4.7631397208144035 2.590569193139703 5.639932965095795e-15
    vertex -4.213244437154397 -3.6947626601362593 5.639932965095795e-15
  endloop
endfacet
facet normal 0.0 0.0 -1.0
  outer loop
    vertex -4.213244437154397 -3.6947626601362593 5.639932965095795e-15
    vertex -4.7631397208144035 2.590569193139703 5.639932965095795e-15
    vertex -4.213244437154368 3.3759010464156667 5.639932965095795e-15
  endloop
endfacet
facet normal 0.0 0.0 -1.0
  outer loop
    vertex -4.213244437154397 -3.6947626601362593 5.639932965095795e-15
    vertex -4.213244437154368 3.3759010464156667 5.639932965095795e-15
    vertex -3.535331853275967 -4.372675244014691 5.639932965095795e-15
  endloop
endfacet
facet normal 0.0 0.0 -1.0
  outer loop
    vertex -3.535331853275967 -4.372675244014691 5.639932965095795e-15
    vertex -4.213244437154368 3.3759010464156667 5.639932965095795e-15
    vertex -3.8000000000000007 -0.15943080686034072 8.459899447643692e-15
  endloop
endfacet
facet normal 0.0 0.0 -1.0
  outer loop
    vertex -3.535331853275967 -4.372675244014691 5.639932965095795e-15
    vertex -3.8000000000000007 -0.15943080686034072 8.459899447643692e-15
    vertex -3.7422694614463867 -0.819293881994675 8.459899447643692e-15
  endloop
endfacet
facet normal 0.0 0.0 -1.0
  outer loop
    vertex -3.535331853275967 -4.372675244014691 5.639932965095795e-15
    vertex -3.7422694614463867 -0.819293881994675 8.459899447643692e-15
    vertex -3.5708319589864437 -1.459107351497879 8.459899447643692e-15
  endloop
endfacet
facet normal 0.0 0.0 -1.0
  outer loop
    vertex -3.535331853275967 -4.372675244014691 5.639932965095795e-15
    vertex -3.5708319589864437 -1.459107351497879 8.459899447643692e-15
    vertex -3.2908965343808547 -2.0594308068603353 8.459899447643692e-15
  endloop
endfacet
facet normal 0.0 0.0 -1.0
  outer loop
    vertex -3.535331853275967 -4.372675244014691 5.639932965095795e-15
    vertex -3.2908965343808547 -2.0594308068603353 8.459899447643692e-15
    vertex -2.7500000000000018 -4.9225705276747265 5.639932965095795e-15
  endloop
endfacet
facet normal 0.0 0.0 -1.0
  outer loop
    vertex -2.7500000000000018 -4.9225705276747265 5.639932965095795e-15
    vertex -3.2908965343808547 -2.0594308068603353 8.459899447643692e-15
    vertex -2.9109688838521013 -2.602023723669182 8.459899447643692e-15
  endloop
endfacet
facet normal 0.0 0.0 -1.0
  outer loop
    vertex -2.7500000000000018 -4.9225705276747265 5.639932965095795e-15
    vertex -2.9109688838521013 -2.602023723669182 8.459899447643692e-15
    vertex -2.442592916808832 -3.0703996907124456 8.459899447643692e-15
  endloop
endfacet
facet normal 0.0 0.0 -1.0
  outer loop
    vertex -2.7500000000000018 -4.9225705276747265 5.639932965095795e-15
    vertex -2.442592916808832 -3.0703996907124456 8.459899447643692e-15
    vertex -1.88111078829118 -5.327740221182809 5.639932965095795e-15
  endloop
endfacet
facet normal 0.0 0.0 -1.0
  outer loop
    vertex -1.88111078829118 -5.327740221182809 5.639932965095795e-15
    vertex -2.442592916808832 -3.0703996907124456 8.459899447643692e-15
    vertex -1.8999999999999806 -3.450327341241192 8.459899447643692e-15
  endloop
endfacet
facet normal 0.0 0.0 -1.0
  outer loop
    vertex -1.88111078829118 -5.327740221182809 5.639932965095795e-15
    vertex -1.8999999999999806 -3.450327341241192 8.459899447643692e-15
    vertex -1.2996765446375211 -3.7302627658467733 8.459899447643692e-15
  endloop
endfacet
facet normal 0.0 0.0 -1.0
  outer loop
    vertex -1.88111078829118 -5.327740221182809 5.639932965095795e-15
    vertex -1.2996765446375211 -3.7302627658467733 8.459899447643692e-15
    vertex -0.9550649771681184 -5.575873448427458 5.639932965095795e-15
  endloop
endfacet
facet normal 0.0 0.0 -1.0
  outer loop
    vertex -0.9550649771681184 -5.575873448427458 5.639932965095795e-15
    vertex -1.2996765446375211 -3.7302627658467733 8.459899447643692e-15
    vertex -0.6598630751343149 -3.901700268306709 8.459899447643692e-15
  endloop
endfacet
facet normal 0.0 0.0 -1.0
  outer loop
    vertex -0.9550649771681184 -5.575873448427458 5.639932965095795e-15
    vertex -0.6598630751343149 -3.901700268306709 8.459899447643692e-15
    vertex -1.4099832412739487e-15 -5.659430806860314 5.639932965095795e-15
  endloop
endfacet
facet normal 0.0 0.0 -1.0
  outer loop
    vertex -1.4099832412739487e-15 -5.659430806860314 5.639932965095795e-15
    vertex -0.6598630751343149 -3.901700268306709 8.459899447643692e-15
    vertex 2.0797252808790744e-14 -3.9594308068603135 8.459899447643692e-15
  endloop
endfacet
facet normal 0.0 0.0 -1.0
  outer loop
    vertex -1.4099832412739487e-15 -5.659430806860314 5.639932965095795e-15
    vertex 2.0797252808790744e-14 -3.9594308068603135 8.459899447643692e-15
    vertex 0.9550649771681152 -5.575873448427458 5.639932965095795e-15
  endloop
endfacet
facet normal 0.0 0.0 -1.0
  outer loop
    vertex 0.9550649771681152 -5.575873448427458 5.639932965095795e-15
    vertex 2.0797252808790744e-14 -3.9594308068603135 8.459899447643692e-15
    vertex 0.6598630751343549 -3.9017002683067017 8.459899447643692e-15
  endloop
endfacet
facet normal 0.0 0.0 -1.0
  outer loop
    vertex 0.9550649771681152 -5.575873448427458 5.639932965095795e-15
    vertex 0.6598630751343549 -3.9017002683067017 8.459899447643692e-15
    vertex 1.2996765446375589 -3.730262765846759 8.459899447643692e-15
  endloop
endfacet
facet normal 0.0 0.0 -1.0
  outer loop
    vertex 0.9550649771681152 -5.575873448427458 5.639932965095795e-15
    vertex 1.2996765446375589 -3.730262765846759 8.459899447643692e-15
    vertex 1.8811107882911764 -5.32774022118281 5.639932965095795e-15
  endloop
endfacet
facet normal 0.0 0.0 -1.0
  outer loop
    vertex 1.8811107882911764 -5.32774022118281 5.639932965095795e-15
    vertex 1.2996765446375589 -3.730262765846759 8.459899447643692e-15
    vertex 1.9000000000000163 -3.4503273412411715 8.459899447643692e-15
  endloop
endfacet
facet normal 0.0 0.0 -1.0
  outer loop
    vertex 1.8811107882911764 -5.32774022118281 5.639932965095795e-15
    vertex 1.9000000000000163 -3.4503273412411715 8.459899447643692e-15
    vertex 2.7499999999999987 -4.9225705276747265 5.639932965095795e-15
  endloop
endfacet
facet normal 0.0 0.0 -1.0
  outer loop
    vertex 2.7499999999999987 -4.9225705276747265 5.639932965095795e-15
    vertex 1.9000000000000163 -3.4503273412411715 8.459899447643692e-15
    vertex 2.4425929168088643 -3.0703996907124185 8.459899447643692e-15
  endloop
endfacet
facet normal 0.0 0.0 -1.0
  outer loop
    vertex 2.7499999999999987 -4.9225705276747265 5.639932965095795e-15
    vertex 2.4425929168088643 -3.0703996907124185 8.459899447643692e-15
    vertex 2.910968883852129 -2.6020237236691486 8.459899447643692e-15
  endloop
endfacet
facet normal 0.0 0.0 -1.0
  outer loop
    vertex 2.7499999999999987 -4.9225705276747265 5.639932965095795e-15
    vertex 2.910968883852129 -2.6020237236691486 8.459899447643692e-15
    vertex 3.5353318532759657 -4.372675244014694 5.639932965095795e-15
  endloop
endfacet
facet normal 0.0 0.0 -1.0
  outer loop
    vertex 3.5353318532759657 -4.372675244014694 5.639932965095795e-15
    vertex 2.910968883852129 -2.6020237236691486 8.459899447643692e-15
    vertex 3.290896534380877 -2.0594308068602976 8.459899447643692e-15
  endloop
endfacet
facet normal 0.0 0.0 -1.0
  outer loop
    vertex 3.5353318532759657 -4.372675244014694 5.639932965095795e-15
    vertex 3.290896534380877 -2.0594308068602976 8.459899447643692e-15
    vertex 3.570831958986459 -1.459107351497837 8.459899447643692e-15
  endloop
endfacet
facet normal 0.0 0.0 -1.0
  outer loop
    vertex 3.5353318532759657 -4.372675244014694 5.639932965095795e-15
    vertex 3.570831958986459 -1.459107351497837 8.459899447643692e-15
    vertex 4.213244437154378 -3.6947626601362806 5.639932965095795e-15
  endloop
endfacet
facet normal 0.0 0.0 -1.0
  outer loop
    vertex 4.213244437154378 -3.6947626601362806 5.639932965095795e-15
    vertex 3.570831958986459 -1.459107351497837 8.459899447643692e-15
    vertex 3.7422694614463943 -0.8192938819946306 8.459899447643692e-15
  endloop
endfacet
facet normal 0.0 0.0 -1.0
  outer loop
    vertex 4.213244437154378 -3.6947626601362806 5.639932965095795e-15
    vertex 3.7422694614463943 -0.8192938819946306 8.459899447643692e-15
    vertex 3.8000000000000007 -0.15943080686029454 8.459899447643692e-15
  endloop
endfacet
endsolid uBraids_SE_Encoder_Spacer
