solid uBraids_SE_Encoder_Shim
facet normal -1.0 1.2092559885162011e-15 -1.2095277925145338e-16
  outer loop
    vertex 4.000000000000002 6.300000000000012 1.199999999999996
    vertex 4.000000000000004 7.900000000000011 9.460146448160727e-16
    vertex 4.0000000000000036 6.300000000000011 4.922837572658757e-16
  endloop
endfacet
facet normal -1.0 1.2092559885162011e-15 -1.2095277925145338e-16
  outer loop
    vertex 4.000000000000004 7.900000000000011 9.460146448160727e-16
    vertex 4.000000000000002 6.300000000000012 1.199999999999996
    vertex 4.000000000000002 6.900000000000013 1.1999999999999953
  endloop
endfacet
facet normal -1.0 1.2092559885162011e-15 -1.2095277925145338e-16
  outer loop
    vertex 4.000000000000004 7.900000000000011 9.460146448160727e-16
    vertex 4.000000000000002 6.900000000000013 1.1999999999999953
    vertex 4.0000000000000036 6.9000000000000155 4.099999999999994
  endloop
endfacet
facet normal -1.0 1.2092559885162011e-15 -1.2095277925145338e-16
  outer loop
    vertex 4.000000000000004 7.900000000000011 9.460146448160727e-16
    vertex 4.0000000000000036 6.9000000000000155 4.099999999999994
    vertex 4.0000000000000036 7.900000000000016 4.099999999999994
  endloop
endfacet
facet normal -7.806507651979539e-16 -2.9237840944693013e-16 1.0
  outer loop
    vertex -6.5999999999999925 1.9999999999999554 4.099999999999992
    vertex -6.599999999999999 6.9000000000000155 4.099999999999991
    vertex -7.599999999999996 1.9999999999999554 4.099999999999993
  endloop
endfacet
facet normal -7.806507651979539e-16 -2.9237840944693013e-16 1.0
  outer loop
    vertex -7.600000000000003 7.9000000000000155 4.0999999999999925
    vertex -6.599999999999999 6.9000000000000155 4.099999999999991
    vertex -4.000000000000038 7.900000000000018 4.099999999999995
  endloop
endfacet
facet normal -7.806507651979539e-16 -2.9237840944693013e-16 1.0
  outer loop
    vertex -6.599999999999999 6.9000000000000155 4.099999999999991
    vertex -7.600000000000003 7.9000000000000155 4.0999999999999925
    vertex -7.599999999999996 1.9999999999999554 4.099999999999993
  endloop
endfacet
facet normal -7.806507651979539e-16 -2.9237840944693013e-16 1.0
  outer loop
    vertex -4.000000000000038 7.900000000000018 4.099999999999995
    vertex -6.599999999999999 6.9000000000000155 4.099999999999991
    vertex -4.000000000000039 6.900000000000017 4.099999999999996
  endloop
endfacet
facet normal 2.877516818926422e-16 -1.0 1.7194917576511577e-15
  outer loop
    vertex -4.0 -7.899999999999995 7.872877391642484e-15
    vertex -7.600000000000003 -7.89999999999999 4.100000000000004
    vertex -7.600000000000006 -7.899999999999999 6.568511791126706e-15
  endloop
endfacet
facet normal 2.877516818926422e-16 -1.0 1.7194917576511577e-15
  outer loop
    vertex -7.600000000000003 -7.89999999999999 4.100000000000004
    vertex -4.0 -7.899999999999995 7.872877391642484e-15
    vertex -3.999999999999999 -7.89999999999999 4.100000000000005
  endloop
endfacet
facet normal 1.0 0.0 9.724022353613444e-16
  outer loop
    vertex -6.599999999999996 6.9000000000000155 1.199999999999992
    vertex -6.5999999999999925 1.9999999999999554 4.099999999999992
    vertex -6.599999999999989 1.9999999999999554 1.1999999999999935
  endloop
endfacet
facet normal 1.0 0.0 9.724022353613444e-16
  outer loop
    vertex -6.5999999999999925 1.9999999999999554 4.099999999999992
    vertex -6.599999999999996 6.9000000000000155 1.199999999999992
    vertex -6.599999999999999 6.9000000000000155 4.099999999999991
  endloop
endfacet
facet normal -1.0 -1.5666480458599299e-15 -3.438983515302305e-16
  outer loop
    vertex -7.599999999999996 1.9999999999999554 4.099999999999993
    vertex -7.600000000000006 7.900000000000012 2.6278170742888734e-15
    vertex -7.59999999999999 1.9999999999999518 6.750449355829474e-15
  endloop
endfacet
facet normal -1.0 -1.5666480458599299e-15 -3.438983515302305e-16
  outer loop
    vertex -7.600000000000006 7.900000000000012 2.6278170742888734e-15
    vertex -7.599999999999996 1.9999999999999554 4.099999999999993
    vertex -7.600000000000003 7.9000000000000155 4.0999999999999925
  endloop
endfacet
facet normal 1.0 2.2487024290833125e-15 3.574222577879973e-16
  outer loop
    vertex -4.00000000000004 7.900000000000011 3.2516749276200616e-15
    vertex -4.000000000000036 6.300000000000017 1.199999999999997
    vertex -4.000000000000035 6.300000000000015 1.663079480020099e-15
  endloop
endfacet
facet normal 1.0 2.2487024290833125e-15 3.574222577879973e-16
  outer loop
    vertex -4.000000000000036 6.300000000000017 1.199999999999997
    vertex -4.00000000000004 7.900000000000011 3.2516749276200616e-15
    vertex -4.000000000000036 6.900000000000017 1.1999999999999964
  endloop
endfacet
facet normal 1.0 2.2487024290833125e-15 3.574222577879973e-16
  outer loop
    vertex -4.000000000000036 6.900000000000017 1.1999999999999964
    vertex -4.00000000000004 7.900000000000011 3.2516749276200616e-15
    vertex -4.000000000000039 6.900000000000017 4.099999999999996
  endloop
endfacet
facet normal 1.0 2.2487024290833125e-15 3.574222577879973e-16
  outer loop
    vertex -4.000000000000039 6.900000000000017 4.099999999999996
    vertex -4.00000000000004 7.900000000000011 3.2516749276200616e-15
    vertex -4.000000000000038 7.900000000000018 4.099999999999995
  endloop
endfacet
facet normal -1.0 -1.0846024932876499e-15 9.724022353613454e-16
  outer loop
    vertex 6.600000000000005 2.0000000000000058 4.099999999999996
    vertex 6.599999999999996 6.900000000000013 1.1999999999999924
    vertex 6.600000000000002 2.000000000000003 1.199999999999996
  endloop
endfacet
facet normal -1.0 -1.0846024932876499e-15 9.724022353613454e-16
  outer loop
    vertex 6.599999999999996 6.900000000000013 1.1999999999999924
    vertex 6.600000000000005 2.0000000000000058 4.099999999999996
    vertex 6.599999999999999 6.9000000000000155 4.099999999999992
  endloop
endfacet
facet normal 9.654151984582653e-16 1.5521025945435856e-15 1.0
  outer loop
    vertex 7.599999999999999 -7.900000000000001 4.099999999999997
    vertex 4.0000000000000036 -6.900000000000001 4.1
    vertex 4.000000000000003 -7.900000000000001 4.100000000000001
  endloop
endfacet
facet normal 9.654151984582653e-16 1.5521025945435856e-15 1.0
  outer loop
    vertex 4.0000000000000036 -6.900000000000001 4.1
    vertex 7.599999999999999 -7.900000000000001 4.099999999999997
    vertex 6.600000000000002 -6.900000000000001 4.099999999999997
  endloop
endfacet
facet normal 9.654151984582653e-16 1.5521025945435856e-15 1.0
  outer loop
    vertex 6.600000000000002 -6.900000000000001 4.099999999999997
    vertex 7.599999999999999 -7.900000000000001 4.099999999999997
    vertex 6.600000000000005 -1.9999999999999973 4.099999999999988
  endloop
endfacet
facet normal 9.654151984582653e-16 1.5521025945435856e-15 1.0
  outer loop
    vertex 6.600000000000005 -1.9999999999999973 4.099999999999988
    vertex 7.599999999999999 -7.900000000000001 4.099999999999997
    vertex 7.600000000000001 -1.9999999999999973 4.099999999999987
  endloop
endfacet
facet normal -1.0 5.423012466438275e-16 9.724022353613466e-16
  outer loop
    vertex 6.600000000000005 -1.9999999999999973 4.099999999999988
    vertex 6.599999999999999 -6.900000000000001 1.2000000000000048
    vertex 6.600000000000002 -6.900000000000001 4.099999999999997
  endloop
endfacet
facet normal -1.0 5.423012466438275e-16 9.724022353613466e-16
  outer loop
    vertex 6.599999999999999 -6.900000000000001 1.2000000000000048
    vertex 6.600000000000005 -1.9999999999999973 4.099999999999988
    vertex 6.600000000000002 -1.9999999999999973 1.199999999999996
  endloop
endfacet
facet normal -1.438758409463226e-16 1.0 -1.5475425818860444e-15
  outer loop
    vertex 4.000000000000004 7.900000000000011 9.460146448160727e-16
    vertex 7.600000000000001 7.900000000000016 4.099999999999991
    vertex 7.600000000000001 7.900000000000011 -1.0278781322989422e-15
  endloop
endfacet
facet normal -1.438758409463226e-16 1.0 -1.5475425818860444e-15
  outer loop
    vertex 7.600000000000001 7.900000000000016 4.099999999999991
    vertex 4.000000000000004 7.900000000000011 9.460146448160727e-16
    vertex 4.0000000000000036 7.900000000000016 4.099999999999994
  endloop
endfacet
facet normal 1.0 -1.9583100573249313e-16 -3.4389835153023167e-16
  outer loop
    vertex 7.599999999999999 -1.9999999999999962 -2.681004616731069e-15
    vertex 7.599999999999999 -7.900000000000001 4.099999999999997
    vertex 7.599999999999999 -7.900000000000001 1.22393641030323e-15
  endloop
endfacet
facet normal 1.0 -1.9583100573249313e-16 -3.4389835153023167e-16
  outer loop
    vertex 7.599999999999999 -7.900000000000001 4.099999999999997
    vertex 7.599999999999999 -1.9999999999999962 -2.681004616731069e-15
    vertex 7.600000000000001 -1.9999999999999973 4.099999999999987
  endloop
endfacet
facet normal 1.0 -1.4573450879808413e-15 -1.6715945896548888e-16
  outer loop
    vertex -4.0 -7.899999999999995 7.872877391642484e-15
    vertex -3.9999999999999982 -6.899999999999996 1.1999999999999995
    vertex -3.999999999999999 -7.89999999999999 4.100000000000005
  endloop
endfacet
facet normal 1.0 -1.4573450879808413e-15 -1.6715945896548888e-16
  outer loop
    vertex -3.9999999999999982 -6.899999999999996 1.1999999999999995
    vertex -4.0 -7.899999999999995 7.872877391642484e-15
    vertex -3.999999999999998 -6.299999999999993 8.79903863960735e-15
  endloop
endfacet
facet normal 1.0 -1.4573450879808413e-15 -1.6715945896548888e-16
  outer loop
    vertex -3.9999999999999982 -6.899999999999996 1.1999999999999995
    vertex -3.999999999999998 -6.299999999999993 8.79903863960735e-15
    vertex -3.999999999999998 -6.299999999999995 1.200000000000001
  endloop
endfacet
facet normal 1.0 -1.4573450879808413e-15 -1.6715945896548888e-16
  outer loop
    vertex -3.9999999999999982 -6.899999999999993 4.100000000000002
    vertex -3.999999999999999 -7.89999999999999 4.100000000000005
    vertex -3.9999999999999982 -6.899999999999996 1.1999999999999995
  endloop
endfacet
facet normal 1.1688002023785378e-15 8.000514167688664e-16 1.0
  outer loop
    vertex 6.599999999999999 6.9000000000000155 4.099999999999992
    vertex 4.0000000000000036 7.900000000000016 4.099999999999994
    vertex 4.0000000000000036 6.9000000000000155 4.099999999999994
  endloop
endfacet
facet normal 1.1688002023785378e-15 8.000514167688664e-16 1.0
  outer loop
    vertex 4.0000000000000036 7.900000000000016 4.099999999999994
    vertex 6.599999999999999 6.9000000000000155 4.099999999999992
    vertex 7.600000000000001 7.900000000000016 4.099999999999991
  endloop
endfacet
facet normal 1.1688002023785378e-15 8.000514167688664e-16 1.0
  outer loop
    vertex 7.600000000000001 7.900000000000016 4.099999999999991
    vertex 6.599999999999999 6.9000000000000155 4.099999999999992
    vertex 6.600000000000005 2.0000000000000058 4.099999999999996
  endloop
endfacet
facet normal 1.1688002023785378e-15 8.000514167688664e-16 1.0
  outer loop
    vertex 7.600000000000001 7.900000000000016 4.099999999999991
    vertex 6.600000000000005 2.0000000000000058 4.099999999999996
    vertex 7.6000000000000085 2.0000000000000058 4.099999999999995
  endloop
endfacet
facet normal -1.0 7.049916206369751e-16 4.376382610011853e-31
  outer loop
    vertex 4.0000000000000036 -6.900000000000001 4.1
    vertex 4.000000000000003 -7.899999999999999 5.3863079308422496e-15
    vertex 4.000000000000003 -7.900000000000001 4.100000000000001
  endloop
endfacet
facet normal -1.0 7.049916206369751e-16 4.376382610011853e-31
  outer loop
    vertex 4.000000000000003 -7.899999999999999 5.3863079308422496e-15
    vertex 4.0000000000000036 -6.900000000000001 4.1
    vertex 4.0000000000000036 -6.900000000000001 1.2000000000000073
  endloop
endfacet
facet normal -1.0 7.049916206369751e-16 4.376382610011853e-31
  outer loop
    vertex 4.000000000000003 -7.899999999999999 5.3863079308422496e-15
    vertex 4.0000000000000036 -6.900000000000001 1.2000000000000073
    vertex 4.0000000000000036 -6.299999999999998 1.6470366737131325e-14
  endloop
endfacet
facet normal -1.0 7.049916206369751e-16 4.376382610011853e-31
  outer loop
    vertex 4.0000000000000036 -6.299999999999998 1.6470366737131325e-14
    vertex 4.0000000000000036 -6.900000000000001 1.2000000000000073
    vertex 4.0000000000000036 -6.300000000000001 1.2000000000000088
  endloop
endfacet
facet normal -1.413890423749761e-16 1.0 2.723136308147165e-16
  outer loop
    vertex 4.8000000000000025 -1.9999999999999971 1.2000000000000006
    vertex 6.600000000000002 -1.9999999999999973 1.199999999999996
    vertex 4.8 -1.999999999999996 1.029771917001987e-14
  endloop
endfacet
facet normal -1.413890423749761e-16 1.0 2.723136308147165e-16
  outer loop
    vertex 7.599999999999999 -1.9999999999999962 -2.681004616731069e-15
    vertex 6.600000000000002 -1.9999999999999973 1.199999999999996
    vertex 7.600000000000001 -1.9999999999999973 4.099999999999987
  endloop
endfacet
facet normal -1.413890423749761e-16 1.0 2.723136308147165e-16
  outer loop
    vertex 6.600000000000002 -1.9999999999999973 1.199999999999996
    vertex 7.599999999999999 -1.9999999999999962 -2.681004616731069e-15
    vertex 4.8 -1.999999999999996 1.029771917001987e-14
  endloop
endfacet
facet normal -1.413890423749761e-16 1.0 2.723136308147165e-16
  outer loop
    vertex 7.600000000000001 -1.9999999999999973 4.099999999999987
    vertex 6.600000000000002 -1.9999999999999973 1.199999999999996
    vertex 6.600000000000005 -1.9999999999999973 4.099999999999988
  endloop
endfacet
facet normal 6.512933432192995e-16 -1.0 2.7537142579579126e-16
  outer loop
    vertex 7.599999999999994 2.0000000000000053 4.939113701567148e-15
    vertex 6.600000000000002 2.000000000000003 1.199999999999996
    vertex 4.8 2.000000000000004 1.0296190272529333e-14
  endloop
endfacet
facet normal 6.512933432192995e-16 -1.0 2.7537142579579126e-16
  outer loop
    vertex 6.600000000000002 2.000000000000003 1.199999999999996
    vertex 7.599999999999994 2.0000000000000053 4.939113701567148e-15
    vertex 7.6000000000000085 2.0000000000000058 4.099999999999995
  endloop
endfacet
facet normal 6.512933432192995e-16 -1.0 2.7537142579579126e-16
  outer loop
    vertex 6.600000000000002 2.000000000000003 1.199999999999996
    vertex 7.6000000000000085 2.0000000000000058 4.099999999999995
    vertex 6.600000000000005 2.0000000000000058 4.099999999999996
  endloop
endfacet
facet normal 6.512933432192995e-16 -1.0 2.7537142579579126e-16
  outer loop
    vertex 4.8000000000000025 2.0000000000000027 1.2000000000000006
    vertex 4.8 2.000000000000004 1.0296190272529333e-14
    vertex 6.600000000000002 2.000000000000003 1.199999999999996
  endloop
endfacet
facet normal 1.1996701822029913e-16 1.6093377746420907e-15 1.0
  outer loop
    vertex -7.600000000000003 -7.89999999999999 4.100000000000004
    vertex -6.600000000000005 -1.9999999999999851 4.099999999999997
    vertex -7.600000000000006 -1.9999999999999847 4.099999999999996
  endloop
endfacet
facet normal 1.1996701822029913e-16 1.6093377746420907e-15 1.0
  outer loop
    vertex -6.600000000000005 -1.9999999999999851 4.099999999999997
    vertex -7.600000000000003 -7.89999999999999 4.100000000000004
    vertex -6.600000000000002 -6.899999999999993 4.100000000000002
  endloop
endfacet
facet normal 1.1996701822029913e-16 1.6093377746420907e-15 1.0
  outer loop
    vertex -6.600000000000002 -6.899999999999993 4.100000000000002
    vertex -7.600000000000003 -7.89999999999999 4.100000000000004
    vertex -3.999999999999999 -7.89999999999999 4.100000000000005
  endloop
endfacet
facet normal 1.1996701822029913e-16 1.6093377746420907e-15 1.0
  outer loop
    vertex -6.600000000000002 -6.899999999999993 4.100000000000002
    vertex -3.999999999999999 -7.89999999999999 4.100000000000005
    vertex -3.9999999999999982 -6.899999999999993 4.100000000000002
  endloop
endfacet
facet normal 1.0 0.0 0.0
  outer loop
    vertex -6.600000000000005 -1.9999999999999887 1.1999999999999942
    vertex -6.600000000000002 -6.899999999999993 4.100000000000002
    vertex -6.600000000000002 -6.899999999999996 1.2000000000000004
  endloop
endfacet
facet normal 1.0 0.0 0.0
  outer loop
    vertex -6.600000000000002 -6.899999999999993 4.100000000000002
    vertex -6.600000000000005 -1.9999999999999887 1.1999999999999942
    vertex -6.600000000000005 -1.9999999999999851 4.099999999999997
  endloop
endfacet
facet normal -1.0900179712746361e-16 -3.655764383069479e-16 -1.0
  outer loop
    vertex -4.800000000000007 -1.9999999999999887 2.12082474565981e-15
    vertex -7.600000000000006 -7.899999999999999 6.568511791126706e-15
    vertex -7.6000000000000085 -1.9999999999999865 4.860548279517319e-15
  endloop
endfacet
facet normal -1.0900179712746361e-16 -3.655764383069479e-16 -1.0
  outer loop
    vertex -7.600000000000006 -7.899999999999999 6.568511791126706e-15
    vertex -4.800000000000007 -1.9999999999999887 2.12082474565981e-15
    vertex -4.0 -7.899999999999995 7.872877391642484e-15
  endloop
endfacet
facet normal -1.0900179712746361e-16 -3.655764383069479e-16 -1.0
  outer loop
    vertex -4.0 -7.899999999999995 7.872877391642484e-15
    vertex -4.800000000000007 -1.9999999999999887 2.12082474565981e-15
    vertex -4.00000000000004 7.900000000000011 3.2516749276200616e-15
  endloop
endfacet
facet normal -1.0900179712746361e-16 -3.655764383069479e-16 -1.0
  outer loop
    vertex -4.0 -7.899999999999995 7.872877391642484e-15
    vertex -4.00000000000004 7.900000000000011 3.2516749276200616e-15
    vertex -4.000000000000035 6.300000000000015 1.663079480020099e-15
  endloop
endfacet
facet normal -1.0900179712746361e-16 -3.655764383069479e-16 -1.0
  outer loop
    vertex -4.0 -7.899999999999995 7.872877391642484e-15
    vertex -4.000000000000035 6.300000000000015 1.663079480020099e-15
    vertex -3.999999999999998 -6.299999999999993 8.79903863960735e-15
  endloop
endfacet
facet normal -1.0900179712746361e-16 -3.655764383069479e-16 -1.0
  outer loop
    vertex -3.999999999999998 -6.299999999999993 8.79903863960735e-15
    vertex -4.000000000000035 6.300000000000015 1.663079480020099e-15
    vertex -1.8000000000000074 3.300000000000017 -1.4099832412739487e-15
  endloop
endfacet
facet normal -1.0900179712746361e-16 -3.655764383069479e-16 -1.0
  outer loop
    vertex -1.8000000000000074 3.300000000000017 -1.4099832412739487e-15
    vertex -4.000000000000035 6.300000000000015 1.663079480020099e-15
    vertex 4.0000000000000036 6.300000000000011 4.922837572658757e-16
  endloop
endfacet
facet normal -1.0900179712746361e-16 -3.655764383069479e-16 -1.0
  outer loop
    vertex -1.8000000000000074 3.300000000000017 -1.4099832412739487e-15
    vertex 4.0000000000000036 6.300000000000011 4.922837572658757e-16
    vertex 1.8000000000000016 3.300000000000017 4.229949723821846e-15
  endloop
endfacet
facet normal -1.0900179712746361e-16 -3.655764383069479e-16 -1.0
  outer loop
    vertex 1.8000000000000016 3.300000000000017 4.229949723821846e-15
    vertex 4.0000000000000036 6.300000000000011 4.922837572658757e-16
    vertex 1.8000000000000016 -3.2999999999999954 4.229949723821846e-15
  endloop
endfacet
facet normal -1.0900179712746361e-16 -3.655764383069479e-16 -1.0
  outer loop
    vertex -3.999999999999998 -6.299999999999993 8.79903863960735e-15
    vertex -1.8000000000000074 -3.2999999999999954 9.86988268891764e-15
    vertex 4.0000000000000036 -6.299999999999998 1.6470366737131325e-14
  endloop
endfacet
facet normal -1.0900179712746361e-16 -3.655764383069479e-16 -1.0
  outer loop
    vertex -1.8000000000000074 -3.2999999999999954 9.86988268891764e-15
    vertex -3.999999999999998 -6.299999999999993 8.79903863960735e-15
    vertex -1.8000000000000074 3.300000000000017 -1.4099832412739487e-15
  endloop
endfacet
facet normal -1.0900179712746361e-16 -3.655764383069479e-16 -1.0
  outer loop
    vertex 4.0000000000000036 -6.299999999999998 1.6470366737131325e-14
    vertex -1.8000000000000074 -3.2999999999999954 9.86988268891764e-15
    vertex 1.8000000000000016 -3.2999999999999954 4.229949723821846e-15
  endloop
endfacet
facet normal -1.0900179712746361e-16 -3.655764383069479e-16 -1.0
  outer loop
    vertex 4.0000000000000036 -6.299999999999998 1.6470366737131325e-14
    vertex 1.8000000000000016 -3.2999999999999954 4.229949723821846e-15
    vertex 4.0000000000000036 6.300000000000011 4.922837572658757e-16
  endloop
endfacet
facet normal -1.0900179712746361e-16 -3.655764383069479e-16 -1.0
  outer loop
    vertex 4.0000000000000036 -6.299999999999998 1.6470366737131325e-14
    vertex 4.0000000000000036 6.300000000000011 4.922837572658757e-16
    vertex 4.000000000000004 7.900000000000011 9.460146448160727e-16
  endloop
endfacet
facet normal -1.0900179712746361e-16 -3.655764383069479e-16 -1.0
  outer loop
    vertex 7.600000000000001 7.900000000000011 -1.0278781322989422e-15
    vertex 4.8 2.000000000000004 1.0296190272529333e-14
    vertex 4.000000000000004 7.900000000000011 9.460146448160727e-16
  endloop
endfacet
facet normal -1.0900179712746361e-16 -3.655764383069479e-16 -1.0
  outer loop
    vertex 4.8 2.000000000000004 1.0296190272529333e-14
    vertex 7.600000000000001 7.900000000000011 -1.0278781322989422e-15
    vertex 7.599999999999994 2.0000000000000053 4.939113701567148e-15
  endloop
endfacet
facet normal -1.0900179712746361e-16 -3.655764383069479e-16 -1.0
  outer loop
    vertex 4.0000000000000036 -6.299999999999998 1.6470366737131325e-14
    vertex 7.599999999999999 -7.900000000000001 1.22393641030323e-15
    vertex 4.000000000000003 -7.899999999999999 5.3863079308422496e-15
  endloop
endfacet
facet normal -1.0900179712746361e-16 -3.655764383069479e-16 -1.0
  outer loop
    vertex 7.599999999999999 -7.900000000000001 1.22393641030323e-15
    vertex 4.0000000000000036 -6.299999999999998 1.6470366737131325e-14
    vertex 4.8 -1.999999999999996 1.029771917001987e-14
  endloop
endfacet
facet normal -1.0900179712746361e-16 -3.655764383069479e-16 -1.0
  outer loop
    vertex 4.8 -1.999999999999996 1.029771917001987e-14
    vertex 4.0000000000000036 -6.299999999999998 1.6470366737131325e-14
    vertex 4.000000000000004 7.900000000000011 9.460146448160727e-16
  endloop
endfacet
facet normal -1.0900179712746361e-16 -3.655764383069479e-16 -1.0
  outer loop
    vertex 4.8 -1.999999999999996 1.029771917001987e-14
    vertex 4.000000000000004 7.900000000000011 9.460146448160727e-16
    vertex 4.8 2.000000000000004 1.0296190272529333e-14
  endloop
endfacet
facet normal -1.0900179712746361e-16 -3.655764383069479e-16 -1.0
  outer loop
    vertex 7.599999999999999 -7.900000000000001 1.22393641030323e-15
    vertex 4.8 -1.999999999999996 1.029771917001987e-14
    vertex 7.599999999999999 -1.9999999999999962 -2.681004616731069e-15
  endloop
endfacet
facet normal -1.0900179712746361e-16 -3.655764383069479e-16 -1.0
  outer loop
    vertex -4.00000000000004 7.900000000000011 3.2516749276200616e-15
    vertex -7.59999999999999 1.9999999999999518 6.750449355829474e-15
    vertex -7.600000000000006 7.900000000000012 2.6278170742888734e-15
  endloop
endfacet
facet normal -1.0900179712746361e-16 -3.655764383069479e-16 -1.0
  outer loop
    vertex -7.59999999999999 1.9999999999999518 6.750449355829474e-15
    vertex -4.00000000000004 7.900000000000011 3.2516749276200616e-15
    vertex -4.800000000000007 1.9999999999999554 1.5991386318662168e-15
  endloop
endfacet
facet normal -1.0900179712746361e-16 -3.655764383069479e-16 -1.0
  outer loop
    vertex -4.800000000000007 1.9999999999999554 1.5991386318662168e-15
    vertex -4.00000000000004 7.900000000000011 3.2516749276200616e-15
    vertex -4.800000000000007 -1.9999999999999887 2.12082474565981e-15
  endloop
endfacet
facet normal -7.193792047316111e-16 1.0 -1.203644230355812e-15
  outer loop
    vertex -7.600000000000003 7.9000000000000155 4.0999999999999925
    vertex -4.00000000000004 7.900000000000011 3.2516749276200616e-15
    vertex -7.600000000000006 7.900000000000012 2.6278170742888734e-15
  endloop
endfacet
facet normal -7.193792047316111e-16 1.0 -1.203644230355812e-15
  outer loop
    vertex -4.00000000000004 7.900000000000011 3.2516749276200616e-15
    vertex -7.600000000000003 7.9000000000000155 4.0999999999999925
    vertex -4.000000000000038 7.900000000000018 4.099999999999995
  endloop
endfacet
facet normal 1.0 -1.9583100573249387e-16 -1.7194917576511603e-15
  outer loop
    vertex 7.600000000000001 7.900000000000011 -1.0278781322989422e-15
    vertex 7.6000000000000085 2.0000000000000058 4.099999999999995
    vertex 7.599999999999994 2.0000000000000053 4.939113701567148e-15
  endloop
endfacet
facet normal 1.0 -1.9583100573249387e-16 -1.7194917576511603e-15
  outer loop
    vertex 7.6000000000000085 2.0000000000000058 4.099999999999995
    vertex 7.600000000000001 7.900000000000011 -1.0278781322989422e-15
    vertex 7.600000000000001 7.900000000000016 4.099999999999991
  endloop
endfacet
facet normal -2.877516818926428e-16 -1.0 -3.438983515302316e-16
  outer loop
    vertex 7.599999999999999 -7.900000000000001 4.099999999999997
    vertex 4.000000000000003 -7.899999999999999 5.3863079308422496e-15
    vertex 7.599999999999999 -7.900000000000001 1.22393641030323e-15
  endloop
endfacet
facet normal -2.877516818926428e-16 -1.0 -3.438983515302316e-16
  outer loop
    vertex 4.000000000000003 -7.899999999999999 5.3863079308422496e-15
    vertex 7.599999999999999 -7.900000000000001 4.099999999999997
    vertex 4.000000000000003 -7.900000000000001 4.100000000000001
  endloop
endfacet
facet normal -1.0 -3.916620114649847e-16 6.877967030604641e-16
  outer loop
    vertex -7.600000000000003 -7.89999999999999 4.100000000000004
    vertex -7.6000000000000085 -1.9999999999999865 4.860548279517319e-15
    vertex -7.600000000000006 -7.899999999999999 6.568511791126706e-15
  endloop
endfacet
facet normal -1.0 -3.916620114649847e-16 6.877967030604641e-16
  outer loop
    vertex -7.6000000000000085 -1.9999999999999865 4.860548279517319e-15
    vertex -7.600000000000003 -7.89999999999999 4.100000000000004
    vertex -7.600000000000006 -1.9999999999999847 4.099999999999996
  endloop
endfacet
facet normal -3.2353286544025255e-16 6.356247008501594e-16 1.0
  outer loop
    vertex 6.599999999999999 -6.900000000000001 1.2000000000000048
    vertex 4.0000000000000036 -6.300000000000001 1.2000000000000088
    vertex 4.0000000000000036 -6.900000000000001 1.2000000000000073
  endloop
endfacet
facet normal -3.2353286544025255e-16 6.356247008501594e-16 1.0
  outer loop
    vertex 4.0000000000000036 -6.300000000000001 1.2000000000000088
    vertex 6.599999999999999 -6.900000000000001 1.2000000000000048
    vertex 4.8000000000000025 -1.9999999999999971 1.2000000000000006
  endloop
endfacet
facet normal -3.2353286544025255e-16 6.356247008501594e-16 1.0
  outer loop
    vertex 4.8000000000000025 -1.9999999999999971 1.2000000000000006
    vertex 6.599999999999999 -6.900000000000001 1.2000000000000048
    vertex 6.600000000000002 -1.9999999999999973 1.199999999999996
  endloop
endfacet
facet normal -3.2353286544025255e-16 6.356247008501594e-16 1.0
  outer loop
    vertex 4.0000000000000036 -6.300000000000001 1.2000000000000088
    vertex -1.8000000000000065 -3.299999999999998 1.2000000000000048
    vertex -3.999999999999998 -6.299999999999995 1.200000000000001
  endloop
endfacet
facet normal -3.2353286544025255e-16 6.356247008501594e-16 1.0
  outer loop
    vertex -1.8000000000000065 -3.299999999999998 1.2000000000000048
    vertex 4.0000000000000036 -6.300000000000001 1.2000000000000088
    vertex 1.8000000000000023 -3.299999999999998 1.2000000000000006
  endloop
endfacet
facet normal -3.2353286544025255e-16 6.356247008501594e-16 1.0
  outer loop
    vertex 1.8000000000000023 -3.299999999999998 1.2000000000000006
    vertex 4.0000000000000036 -6.300000000000001 1.2000000000000088
    vertex 1.8000000000000023 3.3000000000000145 1.1999999999999966
  endloop
endfacet
facet normal -3.2353286544025255e-16 6.356247008501594e-16 1.0
  outer loop
    vertex 1.8000000000000023 3.3000000000000145 1.1999999999999966
    vertex 4.0000000000000036 -6.300000000000001 1.2000000000000088
    vertex 4.000000000000002 6.300000000000012 1.199999999999996
  endloop
endfacet
facet normal -3.2353286544025255e-16 6.356247008501594e-16 1.0
  outer loop
    vertex 4.000000000000002 6.300000000000012 1.199999999999996
    vertex 4.0000000000000036 -6.300000000000001 1.2000000000000088
    vertex 4.000000000000002 6.900000000000013 1.1999999999999953
  endloop
endfacet
facet normal -3.2353286544025255e-16 6.356247008501594e-16 1.0
  outer loop
    vertex 4.000000000000002 6.900000000000013 1.1999999999999953
    vertex 4.0000000000000036 -6.300000000000001 1.2000000000000088
    vertex 4.8000000000000025 2.0000000000000027 1.2000000000000006
  endloop
endfacet
facet normal -3.2353286544025255e-16 6.356247008501594e-16 1.0
  outer loop
    vertex 4.000000000000002 6.900000000000013 1.1999999999999953
    vertex 4.8000000000000025 2.0000000000000027 1.2000000000000006
    vertex 6.599999999999996 6.900000000000013 1.1999999999999924
  endloop
endfacet
facet normal -3.2353286544025255e-16 6.356247008501594e-16 1.0
  outer loop
    vertex 4.8000000000000025 2.0000000000000027 1.2000000000000006
    vertex 4.0000000000000036 -6.300000000000001 1.2000000000000088
    vertex 4.8000000000000025 -1.9999999999999971 1.2000000000000006
  endloop
endfacet
facet normal -3.2353286544025255e-16 6.356247008501594e-16 1.0
  outer loop
    vertex 6.599999999999996 6.900000000000013 1.1999999999999924
    vertex 4.8000000000000025 2.0000000000000027 1.2000000000000006
    vertex 6.600000000000002 2.000000000000003 1.199999999999996
  endloop
endfacet
facet normal -3.2353286544025255e-16 6.356247008501594e-16 1.0
  outer loop
    vertex -6.600000000000002 -6.899999999999996 1.2000000000000004
    vertex -4.800000000000007 -1.9999999999999887 1.1999999999999942
    vertex -6.600000000000005 -1.9999999999999887 1.1999999999999942
  endloop
endfacet
facet normal -3.2353286544025255e-16 6.356247008501594e-16 1.0
  outer loop
    vertex -4.800000000000007 -1.9999999999999887 1.1999999999999942
    vertex -6.600000000000002 -6.899999999999996 1.2000000000000004
    vertex -3.9999999999999982 -6.899999999999996 1.1999999999999995
  endloop
endfacet
facet normal -3.2353286544025255e-16 6.356247008501594e-16 1.0
  outer loop
    vertex -4.800000000000007 -1.9999999999999887 1.1999999999999942
    vertex -3.9999999999999982 -6.899999999999996 1.1999999999999995
    vertex -4.800000000000007 1.9999999999999554 1.1999999999999935
  endloop
endfacet
facet normal -3.2353286544025255e-16 6.356247008501594e-16 1.0
  outer loop
    vertex -4.800000000000007 1.9999999999999554 1.1999999999999935
    vertex -3.9999999999999982 -6.899999999999996 1.1999999999999995
    vertex -4.000000000000036 6.300000000000017 1.199999999999997
  endloop
endfacet
facet normal -3.2353286544025255e-16 6.356247008501594e-16 1.0
  outer loop
    vertex -4.000000000000036 6.300000000000017 1.199999999999997
    vertex -3.9999999999999982 -6.899999999999996 1.1999999999999995
    vertex -3.999999999999998 -6.299999999999995 1.200000000000001
  endloop
endfacet
facet normal -3.2353286544025255e-16 6.356247008501594e-16 1.0
  outer loop
    vertex -4.000000000000036 6.300000000000017 1.199999999999997
    vertex -3.999999999999998 -6.299999999999995 1.200000000000001
    vertex -1.8000000000000065 3.3000000000000145 1.199999999999994
  endloop
endfacet
facet normal -3.2353286544025255e-16 6.356247008501594e-16 1.0
  outer loop
    vertex -4.000000000000036 6.300000000000017 1.199999999999997
    vertex -1.8000000000000065 3.3000000000000145 1.199999999999994
    vertex 4.000000000000002 6.300000000000012 1.199999999999996
  endloop
endfacet
facet normal -3.2353286544025255e-16 6.356247008501594e-16 1.0
  outer loop
    vertex -1.8000000000000065 3.3000000000000145 1.199999999999994
    vertex -3.999999999999998 -6.299999999999995 1.200000000000001
    vertex -1.8000000000000065 -3.299999999999998 1.2000000000000048
  endloop
endfacet
facet normal -3.2353286544025255e-16 6.356247008501594e-16 1.0
  outer loop
    vertex 4.000000000000002 6.300000000000012 1.199999999999996
    vertex -1.8000000000000065 3.3000000000000145 1.199999999999994
    vertex 1.8000000000000023 3.3000000000000145 1.1999999999999966
  endloop
endfacet
facet normal -3.2353286544025255e-16 6.356247008501594e-16 1.0
  outer loop
    vertex -6.599999999999989 1.9999999999999554 1.1999999999999935
    vertex -4.000000000000036 6.900000000000017 1.1999999999999964
    vertex -6.599999999999996 6.9000000000000155 1.199999999999992
  endloop
endfacet
facet normal -3.2353286544025255e-16 6.356247008501594e-16 1.0
  outer loop
    vertex -4.000000000000036 6.900000000000017 1.1999999999999964
    vertex -6.599999999999989 1.9999999999999554 1.1999999999999935
    vertex -4.800000000000007 1.9999999999999554 1.1999999999999935
  endloop
endfacet
facet normal -3.2353286544025255e-16 6.356247008501594e-16 1.0
  outer loop
    vertex -4.000000000000036 6.900000000000017 1.1999999999999964
    vertex -4.800000000000007 1.9999999999999554 1.1999999999999935
    vertex -4.000000000000036 6.300000000000017 1.199999999999997
  endloop
endfacet
facet normal 9.598469812742774e-16 1.0 -5.991927846952522e-16
  outer loop
    vertex -7.600000000000006 -1.9999999999999847 4.099999999999996
    vertex -6.600000000000005 -1.9999999999999887 1.1999999999999942
    vertex -7.6000000000000085 -1.9999999999999865 4.860548279517319e-15
  endloop
endfacet
facet normal 9.598469812742774e-16 1.0 -5.991927846952522e-16
  outer loop
    vertex -6.600000000000005 -1.9999999999999887 1.1999999999999942
    vertex -7.600000000000006 -1.9999999999999847 4.099999999999996
    vertex -6.600000000000005 -1.9999999999999851 4.099999999999997
  endloop
endfacet
facet normal 9.598469812742774e-16 1.0 -5.991927846952522e-16
  outer loop
    vertex -7.6000000000000085 -1.9999999999999865 4.860548279517319e-15
    vertex -4.800000000000007 -1.9999999999999887 1.1999999999999942
    vertex -4.800000000000007 -1.9999999999999887 2.12082474565981e-15
  endloop
endfacet
facet normal 9.598469812742774e-16 1.0 -5.991927846952522e-16
  outer loop
    vertex -4.800000000000007 -1.9999999999999887 1.1999999999999942
    vertex -7.6000000000000085 -1.9999999999999865 4.860548279517319e-15
    vertex -6.600000000000005 -1.9999999999999887 1.1999999999999942
  endloop
endfacet
facet normal -1.0 0.0 7.343662714968483e-17
  outer loop
    vertex -4.800000000000007 1.9999999999999554 1.1999999999999935
    vertex -4.800000000000007 -1.9999999999999887 2.12082474565981e-15
    vertex -4.800000000000007 -1.9999999999999887 1.1999999999999942
  endloop
endfacet
facet normal -1.0 0.0 7.343662714968483e-17
  outer loop
    vertex -4.800000000000007 -1.9999999999999887 2.12082474565981e-15
    vertex -4.800000000000007 1.9999999999999554 1.1999999999999935
    vertex -4.800000000000007 1.9999999999999554 1.5991386318662168e-15
  endloop
endfacet
facet normal 1.076161312060417e-15 -1.0 4.441794428919342e-16
  outer loop
    vertex -4.800000000000007 1.9999999999999554 1.1999999999999935
    vertex -7.59999999999999 1.9999999999999518 6.750449355829474e-15
    vertex -4.800000000000007 1.9999999999999554 1.5991386318662168e-15
  endloop
endfacet
facet normal 1.076161312060417e-15 -1.0 4.441794428919342e-16
  outer loop
    vertex -7.59999999999999 1.9999999999999518 6.750449355829474e-15
    vertex -4.800000000000007 1.9999999999999554 1.1999999999999935
    vertex -6.599999999999989 1.9999999999999554 1.1999999999999935
  endloop
endfacet
facet normal 1.076161312060417e-15 -1.0 4.441794428919342e-16
  outer loop
    vertex -7.59999999999999 1.9999999999999518 6.750449355829474e-15
    vertex -6.599999999999989 1.9999999999999554 1.1999999999999935
    vertex -7.599999999999996 1.9999999999999554 4.099999999999993
  endloop
endfacet
facet normal 1.076161312060417e-15 -1.0 4.441794428919342e-16
  outer loop
    vertex -7.599999999999996 1.9999999999999554 4.099999999999993
    vertex -6.599999999999989 1.9999999999999554 1.1999999999999935
    vertex -6.5999999999999925 1.9999999999999554 4.099999999999992
  endloop
endfacet
facet normal 1.0 0.0 -2.7759045062580923e-15
  outer loop
    vertex 4.8 -1.999999999999996 1.029771917001987e-14
    vertex 4.8000000000000025 2.0000000000000027 1.2000000000000006
    vertex 4.8000000000000025 -1.9999999999999971 1.2000000000000006
  endloop
endfacet
facet normal 1.0 0.0 -2.7759045062580923e-15
  outer loop
    vertex 4.8000000000000025 2.0000000000000027 1.2000000000000006
    vertex 4.8 -1.999999999999996 1.029771917001987e-14
    vertex 4.8 2.000000000000004 1.0296190272529333e-14
  endloop
endfacet
facet normal -1.6098927391445597e-31 1.0 -9.72402235361343e-16
  outer loop
    vertex -6.600000000000002 -6.899999999999996 1.2000000000000004
    vertex -3.9999999999999982 -6.899999999999993 4.100000000000002
    vertex -3.9999999999999982 -6.899999999999996 1.1999999999999995
  endloop
endfacet
facet normal -1.6098927391445597e-31 1.0 -9.72402235361343e-16
  outer loop
    vertex -3.9999999999999982 -6.899999999999993 4.100000000000002
    vertex -6.600000000000002 -6.899999999999996 1.2000000000000004
    vertex -6.600000000000002 -6.899999999999993 4.100000000000002
  endloop
endfacet
facet normal -0.0 1.0 -0.0
  outer loop
    vertex 4.0000000000000036 -6.900000000000001 1.2000000000000073
    vertex 6.600000000000002 -6.900000000000001 4.099999999999997
    vertex 6.599999999999999 -6.900000000000001 1.2000000000000048
  endloop
endfacet
facet normal -0.0 1.0 -0.0
  outer loop
    vertex 6.600000000000002 -6.900000000000001 4.099999999999997
    vertex 4.0000000000000036 -6.900000000000001 1.2000000000000073
    vertex 4.0000000000000036 -6.900000000000001 4.1
  endloop
endfacet
facet normal 9.627665632915768e-31 -1.0 9.724022353613442e-16
  outer loop
    vertex 6.599999999999999 6.9000000000000155 4.099999999999992
    vertex 4.000000000000002 6.900000000000013 1.1999999999999953
    vertex 6.599999999999996 6.900000000000013 1.1999999999999924
  endloop
endfacet
facet normal 9.627665632915768e-31 -1.0 9.724022353613442e-16
  outer loop
    vertex 4.000000000000002 6.900000000000013 1.1999999999999953
    vertex 6.599999999999999 6.9000000000000155 4.099999999999992
    vertex 4.0000000000000036 6.9000000000000155 4.099999999999994
  endloop
endfacet
facet normal 5.423012466438348e-16 -1.0 4.976439414058091e-31
  outer loop
    vertex -4.000000000000036 6.900000000000017 1.1999999999999964
    vertex -6.599999999999999 6.9000000000000155 4.099999999999991
    vertex -6.599999999999996 6.9000000000000155 1.199999999999992
  endloop
endfacet
facet normal 5.423012466438348e-16 -1.0 4.976439414058091e-31
  outer loop
    vertex -6.599999999999999 6.9000000000000155 4.099999999999991
    vertex -4.000000000000036 6.900000000000017 1.1999999999999964
    vertex -4.000000000000039 6.900000000000017 4.099999999999996
  endloop
endfacet
facet normal 5.287437154777283e-16 1.0 -1.1749860343949615e-15
  outer loop
    vertex -4.000000000000035 6.300000000000015 1.663079480020099e-15
    vertex 4.000000000000002 6.300000000000012 1.199999999999996
    vertex 4.0000000000000036 6.300000000000011 4.922837572658757e-16
  endloop
endfacet
facet normal 5.287437154777283e-16 1.0 -1.1749860343949615e-15
  outer loop
    vertex 4.000000000000002 6.300000000000012 1.199999999999996
    vertex -4.000000000000035 6.300000000000015 1.663079480020099e-15
    vertex -4.000000000000036 6.300000000000017 1.199999999999997
  endloop
endfacet
facet normal -7.049916206369718e-16 -1.0 -2.3499720687899298e-15
  outer loop
    vertex 4.0000000000000036 -6.299999999999998 1.6470366737131325e-14
    vertex -3.999999999999998 -6.299999999999995 1.200000000000001
    vertex -3.999999999999998 -6.299999999999993 8.79903863960735e-15
  endloop
endfacet
facet normal -7.049916206369718e-16 -1.0 -2.3499720687899298e-15
  outer loop
    vertex -3.999999999999998 -6.299999999999995 1.200000000000001
    vertex 4.0000000000000036 -6.299999999999998 1.6470366737131325e-14
    vertex 4.0000000000000036 -6.300000000000001 1.2000000000000088
  endloop
endfacet
facet normal -1.3805921810231794e-30 1.0 -1.174986034394953e-15
  outer loop
    vertex -1.8000000000000074 -3.2999999999999954 9.86988268891764e-15
    vertex 1.8000000000000023 -3.299999999999998 1.2000000000000006
    vertex 1.8000000000000016 -3.2999999999999954 4.229949723821846e-15
  endloop
endfacet
facet normal -1.3805921810231794e-30 1.0 -1.174986034394953e-15
  outer loop
    vertex 1.8000000000000023 -3.299999999999998 1.2000000000000006
    vertex -1.8000000000000074 -3.2999999999999954 9.86988268891764e-15
    vertex -1.8000000000000065 -3.299999999999998 1.2000000000000048
  endloop
endfacet
facet normal -1.0 -2.906739219515356e-31 -4.732582638535246e-16
  outer loop
    vertex 1.8000000000000023 3.3000000000000145 1.1999999999999966
    vertex 1.8000000000000016 -3.2999999999999954 4.229949723821846e-15
    vertex 1.8000000000000023 -3.299999999999998 1.2000000000000006
  endloop
endfacet
facet normal -1.0 -2.906739219515356e-31 -4.732582638535246e-16
  outer loop
    vertex 1.8000000000000016 -3.2999999999999954 4.229949723821846e-15
    vertex 1.8000000000000023 3.3000000000000145 1.1999999999999966
    vertex 1.8000000000000016 3.300000000000017 4.229949723821846e-15
  endloop
endfacet
facet normal -8.62870113139487e-31 -1.0 1.174986034394953e-15
  outer loop
    vertex 1.8000000000000016 3.300000000000017 4.229949723821846e-15
    vertex -1.8000000000000065 3.3000000000000145 1.199999999999994
    vertex -1.8000000000000074 3.300000000000017 -1.4099832412739487e-15
  endloop
endfacet
facet normal -8.62870113139487e-31 -1.0 1.174986034394953e-15
  outer loop
    vertex -1.8000000000000065 3.3000000000000145 1.199999999999994
    vertex 1.8000000000000016 3.300000000000017 4.229949723821846e-15
    vertex 1.8000000000000023 3.3000000000000145 1.1999999999999966
  endloop
endfacet
facet normal 1.0 7.835557896084871e-31 4.732582638535246e-16
  outer loop
    vertex -1.8000000000000074 -3.2999999999999954 9.86988268891764e-15
    vertex -1.8000000000000065 3.3000000000000145 1.199999999999994
    vertex -1.8000000000000065 -3.299999999999998 1.2000000000000048
  endloop
endfacet
facet normal 1.0 7.835557896084871e-31 4.732582638535246e-16
  outer loop
    vertex -1.8000000000000065 3.3000000000000145 1.199999999999994
    vertex -1.8000000000000074 -3.2999999999999954 9.86988268891764e-15
    vertex -1.8000000000000074 3.300000000000017 -1.4099832412739487e-15
  endloop
endfacet
endsolid uBraids_SE_Encoder_Shim
